<svg xmlns="http://www.w3.org/2000/svg" viewBox="0 0 400 400" height="300" width="300" id="Page-Not-Found-1--Streamline-Barcelona.svg"><desc>Page Not Found 1 Streamline Illustration: https://streamlinehq.com</desc><defs></defs><path d="M105.6 176.066a0.89 0.89 0 0 1 -0.972 -1.172c0.572 -3.384 17.772 -79.724 18.312 -82.128H91.71c-0.152 0.2 4.332 -4.668 -76.712 82.858 -0.13 1.212 -2.282 21.688 -3.234 30.72 0.652 -0.07 1.362 -0.05 1.954 -0.1 1.922 -0.17 65.154 -5.746 67.488 -5.948a0.852 0.852 0 0 1 0.81 1.072c-0.062 0.158 -1.904 7.86 -20.516 80.416 0.88 -0.11 7.96 -1.032 10.614 -1.372 -0.03 -0.852 -0.05 -1.692 -0.09 -2.544 -0.04 -1.092 1.642 -1.082 1.692 0 0.03 0.772 0.05 1.552 0.08 2.324 2.514 -0.332 5.036 -0.652 7.56 -0.982l0.03 -1.922a0.846 0.846 0 0 1 1.692 0c-0.01 0.57 -0.01 1.132 -0.02 1.702l6.94 -0.902c0.014 -0.2 10.056 -79.01 10.082 -79.214a0.846 0.846 0 0 1 0.622 -0.81c1.15 -0.19 19.224 -3.134 27.114 -4.426 0.14 -0.616 3.182 -14.8 4.656 -21.868 -0.2 0.03 -26.672 4.296 -26.872 4.296zM76.318 180.4c-4.414 0.67 -37.708 5.756 -39 5.956v-11.622c1.882 -1.922 56.584 -57.656 56.584 -57.656 -0.066 0.202 -17.156 61.568 -17.584 63.322zm277.604 -4.334a0.89 0.89 0 0 1 -0.972 -1.172c0.572 -3.384 17.774 -79.724 18.314 -82.128h-31.23c-0.15 0.2 4.332 -4.668 -76.71 82.858 -0.13 1.212 -2.284 21.688 -3.234 30.72 0.65 -0.07 1.36 -0.05 1.952 -0.1 1.922 -0.17 65.156 -5.746 67.488 -5.948a0.85 0.85 0 0 1 0.81 1.072c-0.06 0.162 -2.156 8.84 -20.516 80.416 0.882 -0.11 7.96 -1.032 10.614 -1.372 -0.03 -0.852 -0.05 -1.692 -0.09 -2.544 -0.04 -1.092 1.642 -1.082 1.692 0 0.03 0.772 0.05 1.552 0.08 2.324 2.514 -0.332 5.038 -0.652 7.56 -0.982 0 -0.642 0.022 -1.282 0.03 -1.922a0.848 0.848 0 0 1 1.694 0c-0.012 0.57 -0.012 1.132 -0.022 1.702l6.94 -0.902c0.014 -0.2 10.056 -79.012 10.082 -79.214a0.846 0.846 0 0 1 0.622 -0.81c1.152 -0.19 19.226 -3.134 27.114 -4.426 0.138 -0.6 3.168 -14.728 4.658 -21.868 -0.198 0.03 -26.674 4.296 -26.876 4.296zM324.644 180.4c-4.416 0.67 -37.71 5.756 -39.012 5.956v-11.622l56.584 -57.656c-0.056 0.204 -17.14 61.546 -17.572 63.322z" fill="#b26ee6" stroke-width="1"></path><path d="M243.4 123.236c-3.154 -9.742 -7.62 -19.446 -15.34 -26.164a36.166 36.166 0 0 0 -26.966 -8.6c-32.324 3.14 -49.428 46.422 -54.922 78.2 -5.448 31.472 -8.23 73.968 22.38 94.184 9.962 6.578 23.06 8.902 34.154 4.496 9.242 -3.664 16.232 -11.424 21.98 -19.546a140.706 140.706 0 0 0 18.714 -122.57zm-35.46 104.106c-3.646 5.678 -7.98 11.044 -13.376 13.358 -6.49 2.772 -13.768 0.6 -19.076 -4.576 -16.29 -15.86 -12.626 -46.62 -8 -69.28 3.874 -19 14.168 -49.556 31.442 -54.152a17.248 17.248 0 0 1 18.244 6.73c12.014 15.454 15.714 69.078 -9.234 107.92z" fill="#ffd35c" stroke-width="1"></path><path d="M133.374 169.918a10648.32 10648.32 0 0 0 -26.836 4.294l18.304 -82.096a0.854 0.854 0 0 0 -0.81 -1.072H91.74c-1.11 0.028 -1.078 0.368 -2.884 2.324C8.666 180.044 13.48 174.442 13.356 175.504c-0.28 2.584 -3.304 31.312 -3.356 31.822a0.84 0.84 0 0 0 0.842 0.842c13.292 -1.142 62.564 -5.582 69.26 -6.028 -11.434 44.382 -20.436 80.2 -20.516 80.4 -0.12 0.472 0.25 1.142 0.81 1.072l11.786 -1.534a282.912 282.912 0 0 1 -1.672 39.734 29.14 29.14 0 0 0 -11.566 1.652c-1 0.36 -0.58 2 0.452 1.632a27.97 27.97 0 0 1 11.864 -1.552 0.852 0.852 0 0 0 0.842 -0.842 282.246 282.246 0 0 0 1.752 -40.842c2.494 -0.32 4.986 -0.652 7.48 -0.972a347.626 347.626 0 0 0 1.712 39.822c0.374 2.562 2.2 2.948 8.482 6.058 0.97 0.48 1.832 -0.982 0.85 -1.462 -7.2 -3.552 -7.462 -3.346 -7.69 -4.946a351.732 351.732 0 0 1 -1.662 -39.722c1.332 -0.17 6.508 -0.842 7.76 -1.012a0.874 0.874 0 0 0 0.842 -0.84c0.024 -0.2 10.068 -79.034 10.082 -79.234 7.86 -1.282 25.864 -4.226 27.016 -4.416 0.78 -0.116 0.224 0.856 5.658 -24.242 0.172 -0.616 -0.37 -1.078 -1.01 -0.976zm-5.558 23.72c-7.89 1.292 -25.964 4.236 -27.114 4.426a0.846 0.846 0 0 0 -0.622 0.81c-0.026 0.2 -10.068 79.012 -10.082 79.214l-6.94 0.902c0 -0.57 0 -1.132 0.02 -1.702a0.846 0.846 0 0 0 -1.692 0l-0.03 1.922c-2.524 0.33 -5.046 0.65 -7.56 0.982 -0.03 -0.772 -0.05 -1.552 -0.08 -2.324 -0.05 -1.082 -1.732 -1.092 -1.692 0 0.04 0.852 0.06 1.692 0.09 2.544 -2.654 0.34 -9.732 1.262 -10.614 1.372 18.612 -72.556 20.454 -80.258 20.516 -80.416a0.852 0.852 0 0 0 -0.81 -1.072c-2.334 0.2 -65.566 5.778 -67.488 5.948 -0.6 0.05 -1.302 0.03 -1.954 0.1 0.952 -9.032 3.104 -29.508 3.234 -30.72C96.042 88.098 91.56 92.966 91.71 92.766H122.94c-0.54 2.4 -17.742 78.744 -18.314 82.128a0.89 0.89 0 0 0 0.972 1.172h0.03c8.22 -1.312 26.114 -4.176 26.844 -4.296a3844.724 3844.724 0 0 1 -4.656 21.868z" fill="#000000" stroke-width="1"></path><path d="M94.984 113.544c-0.696 0.706 -55.844 56.914 -57.566 58.656 -0.65 0.662 -1.782 1.432 -1.8 2.434 -0.048 3 0 12.904 0 12.696a0.86 0.86 0 0 0 1.072 0.812c4.576 -0.702 38.88 -5.938 40.542 -6.188a0.67 0.67 0 0 0 0.612 -0.652c0.6 -2.212 18.554 -66.918 18.564 -66.958a0.852 0.852 0 0 0 -1.424 -0.8zM76.318 180.4c-4.414 0.67 -37.708 5.756 -39 5.956v-11.622c1.882 -1.922 56.584 -57.656 56.584 -57.656 -0.066 0.202 -17.156 61.568 -17.584 63.322zm305.372 -10.482c-8.226 1.288 -26.116 4.174 -26.836 4.294 0.52 -2.342 18.292 -82.046 18.302 -82.096a0.852 0.852 0 0 0 -0.81 -1.072h-32.292c-1.11 0.028 -1.072 0.36 -2.884 2.324 -80.348 86.782 -75.382 81.116 -75.498 82.136 -0.282 2.584 -3.306 31.312 -3.354 31.822a0.84 0.84 0 0 0 0.84 0.842c13.348 -1.146 62.536 -5.58 69.26 -6.028 -11.708 45.444 -20.432 80.2 -20.516 80.4 -0.12 0.472 0.25 1.142 0.812 1.072l11.8 -1.534a282.912 282.912 0 0 1 -1.672 39.734 29.14 29.14 0 0 0 -11.566 1.652c-1 0.36 -0.58 2 0.452 1.632a27.97 27.97 0 0 1 11.864 -1.552 0.852 0.852 0 0 0 0.842 -0.842 281.944 281.944 0 0 0 1.752 -40.842c2.494 -0.32 4.986 -0.652 7.48 -0.972a347.24 347.24 0 0 0 1.714 39.822c0.372 2.564 2.19 2.948 8.48 6.058 0.97 0.48 1.832 -0.982 0.85 -1.462 -7.2 -3.552 -7.46 -3.346 -7.69 -4.946a352.116 352.116 0 0 1 -1.662 -39.722c1.332 -0.17 6.508 -0.842 7.76 -1.012a0.872 0.872 0 0 0 0.842 -0.84c0.026 -0.2 10.068 -79.024 10.082 -79.234 7.862 -1.282 25.864 -4.226 27.016 -4.416 0.778 -0.116 0.238 0.8 5.658 -24.242 0.164 -0.616 -0.378 -1.078 -1.026 -0.976zm-5.55 23.72c-7.888 1.292 -25.962 4.236 -27.114 4.426a0.846 0.846 0 0 0 -0.622 0.81c-0.026 0.2 -10.068 79.014 -10.082 79.214l-6.94 0.902c0 -0.57 0 -1.132 0.022 -1.702a0.848 0.848 0 0 0 -1.694 0l-0.03 1.922c-2.522 0.33 -5.046 0.65 -7.56 0.982 -0.03 -0.772 -0.05 -1.552 -0.08 -2.324 -0.05 -1.082 -1.732 -1.092 -1.692 0 0.04 0.852 0.06 1.692 0.09 2.544 -2.654 0.34 -9.732 1.262 -10.614 1.372 18.36 -71.576 20.456 -80.254 20.516 -80.416a0.852 0.852 0 0 0 -0.81 -1.072c-2.332 0.2 -65.566 5.778 -67.488 5.948 -0.6 0.05 -1.302 0.03 -1.952 0.1 0.95 -9.032 3.104 -29.508 3.234 -30.72 81.042 -87.526 76.56 -82.658 76.71 -82.858h31.23c-0.54 2.4 -17.742 78.744 -18.314 82.128a0.89 0.89 0 0 0 0.972 1.172h0.03c8.22 -1.312 26.114 -4.176 26.846 -4.296 -1.492 7.14 -4.52 21.26 -4.658 21.868z" fill="#000000" stroke-width="1"></path><path d="M343.308 113.544c-0.696 0.706 -55.844 56.914 -57.566 58.656 -0.65 0.662 -1.782 1.432 -1.8 2.434 -0.048 3 0 12.904 0 12.696a0.86 0.86 0 0 0 1.072 0.812c4.576 -0.702 38.88 -5.938 40.544 -6.188a0.668 0.668 0 0 0 0.61 -0.652c0.61 -2.212 18.554 -66.918 18.564 -66.958a0.852 0.852 0 0 0 -1.424 -0.8zM324.644 180.4c-4.416 0.67 -37.71 5.756 -39.012 5.956v-11.622l56.584 -57.656c-0.056 0.204 -17.14 61.546 -17.572 63.322zM103.254 99.164c-2.85 -1.464 -5.652 2.48 -2.764 6.108a2.698 2.698 0 0 0 3.636 0.712 4.64 4.64 0 0 0 -0.872 -6.82zm251.85 5.328a0.846 0.846 0 0 0 1.632 0.45 5.91 5.91 0 0 0 -2.242 -6.578c-3.772 -2.766 -9.1 0.88 -8.652 5.216a0.842 0.842 0 0 0 1.682 0 4.132 4.132 0 0 1 4.736 -4.416 4.182 4.182 0 0 1 2.844 5.328zm-163.694 154.882c-0.032 -1.082 -1.722 -1.092 -1.692 0a544.502 544.502 0 0 1 -1.542 61.15 22.426 22.426 0 0 0 -11.746 2.364c-0.972 0.48 -0.12 1.942 0.85 1.462a20.718 20.718 0 0 1 11.666 -2.074c0.48 0.062 0.812 -0.43 0.842 -0.842a543.2 543.2 0 0 0 1.622 -62.06zm22.85 62.942c-2.072 -1.328 -6.456 -0.18 -9.114 -0.64a3.45 3.45 0 0 1 -1.73 -0.902 4.12 4.12 0 0 1 -1.072 -3.024 683.936 683.936 0 0 1 -1.582 -59.168 0.846 0.846 0 0 0 -1.692 0c-0.272 16.8 0.058 33.588 1.022 50.256 0.6 10.332 0.664 10.784 1.14 11.8a5.428 5.428 0 0 0 2.082 2.142c2.502 1.57 8.222 -0.2 10.094 1 0.92 0.58 1.766 -0.878 0.852 -1.464zm15.1 -206.028c1.49 1.19 1.972 3.074 3.054 4.576a4.856 4.856 0 0 0 4.556 2.332c4.366 -0.844 1.962 -6.506 9.322 -27.076 0.27 -0.75 0.57 -1.882 1.54 -1.19 0.8 0.56 0.962 1.742 1.324 2.572a5.862 5.862 0 0 0 9.932 0.972c0.63 -0.892 -0.84 -1.732 -1.462 -0.852a4.274 4.274 0 0 1 -6.488 0.02c-1.052 -1.382 -0.932 -3.324 -2.624 -4.264a2.432 2.432 0 0 0 -2.274 -0.14 3.518 3.518 0 0 0 -1.49 2.182c-7.25 19.958 -5.302 26.476 -8.582 26.154 -2.764 -0.298 -3.36 -4.678 -5.6 -6.468 -0.858 -0.682 -2.06 0.494 -1.208 1.182zm-56.474 0.13a10.102 10.102 0 0 1 -1.964 2.964c-0.62 0.64 -1.752 1.832 -2.754 1.752 -0.716 -0.052 -0.816 -0.82 -1.46 -3.164 -0.382 -1.352 -4.336 -15.22 -5.928 -20.8a0.846 0.846 0 0 0 -1.412 -0.37 6.858 6.858 0 0 1 -9.342 0.64 10.106 10.106 0 0 1 -2.344 -3.744c-0.44 -1 -1.892 -0.13 -1.462 0.85a10.8 10.8 0 0 0 2.8 4.256 8.69 8.69 0 0 0 10.504 0.14c6.494 22.732 6.148 22.738 7.42 23.532a2.888 2.888 0 0 0 2.8 -0.072 10.454 10.454 0 0 0 4.586 -5.146c0.458 -0.97 -1.002 -1.83 -1.444 -0.838zm27.366 -38.352a3.8 3.8 0 0 1 4.214 0.922 12.23 12.23 0 0 1 2.704 4.826c0.38 1.012 2.012 0.57 1.632 -0.45 -1.162 -3.094 -2.8 -6.75 -6.508 -7.26a5.6 5.6 0 0 0 -5.828 4.416 18.088 18.088 0 0 0 -0.81 4.556c-0.072 1.082 1.612 1.082 1.692 0 0.15 -2.314 0.552 -5.814 2.904 -7.01zm-145.07 228.26a0.842 0.842 0 0 0 0 -1.684h-2.874a0.842 0.842 0 0 0 0 1.684zm190.338 6.248c-9.566 0.658 -19.154 0.91 -28.748 0.65a0.848 0.848 0 0 0 0 1.694 284.258 284.258 0 0 0 28.748 -0.652c1.08 -0.08 1.092 -1.766 0 -1.692zm13.808 7.47 -17.814 0.8c-1.08 0.05 -1.09 1.742 0 1.692q8.906 -0.39 17.814 -0.8c1.082 -0.05 1.082 -1.736 0 -1.692zm112.848 -2.754H348.6a0.846 0.846 0 0 0 0 1.692h23.58a0.846 0.846 0 0 0 -0.004 -1.692zM75.918 68.534a0.852 0.852 0 0 0 0.842 -0.84 4.668 4.668 0 0 1 4.296 -4.494 0.842 0.842 0 0 0 0 -1.682c-5.398 0.182 -7.256 7.11 -5.138 7.016zm49.776 -7.56a6.342 6.342 0 0 1 5.086 4.356 0.846 0.846 0 1 0 1.632 -0.45 8.054 8.054 0 0 0 -6.258 -5.548 0.852 0.852 0 0 0 -0.46 1.642zm204.396 12.968 1.6 -1a7.01 7.01 0 0 0 7.93 9.252 7.028 7.028 0 0 0 -0.55 -13.888c0.72 -0.62 -0.07 -1.912 -0.952 -1.362l-8.87 5.528c-0.93 0.588 -0.088 2.05 0.842 1.47zm13.538 1.342a5.352 5.352 0 1 1 -4.386 -5.268 5.356 5.356 0 0 1 4.386 5.268zM89.6 84.456a7.036 7.036 0 1 0 -6.738 -11.4 7.106 7.106 0 0 0 6.738 11.4zm-0.37 -12.186a5.416 5.416 0 0 1 4.386 5.266 5.352 5.352 0 1 1 -4.386 -5.266zm37.524 12.176a7.036 7.036 0 1 0 -6.738 -11.4 7.108 7.108 0 0 0 6.738 11.4zm-0.36 -12.176a5.416 5.416 0 0 1 4.386 5.266 5.352 5.352 0 1 1 -4.38 -5.266z" fill="#000000" stroke-width="1"></path><path d="M86.292 78.108a2.534 2.534 0 1 0 5.068 0 2.534 2.534 0 1 0 -5.068 0" fill="#000000" stroke-width="1"></path><path d="M122.898 78.108a2.534 2.534 0 1 0 5.068 0 2.534 2.534 0 1 0 -5.068 0" fill="#000000" stroke-width="1"></path><path d="M335.748 75.854a2.534 2.534 0 1 0 2.532 -2.534 2.53 2.53 0 0 0 -2.532 2.534zm35.396 9.162a7.016 7.016 0 0 0 4.666 -10.514c0.558 0.238 1.356 0.742 1.8 0a0.842 0.842 0 0 0 -0.302 -1.152 70.322 70.322 0 0 1 -9.8 -5.066c-0.932 -0.57 -1.772 0.892 -0.852 1.462 0.782 0.48 1.562 0.952 2.354 1.4a7.052 7.052 0 0 0 -5.248 10.584 7.136 7.136 0 0 0 7.382 3.286zm-0.37 -12.186a5.418 5.418 0 0 1 4.386 5.266 5.352 5.352 0 1 1 -4.386 -5.266z" fill="#000000" stroke-width="1"></path><path d="M367.278 78.668a2.534 2.534 0 1 0 5.068 0 2.534 2.534 0 1 0 -5.068 0" fill="#000000" stroke-width="1"></path><path d="M183.068 87.83a7.036 7.036 0 1 0 -6.738 -11.4 7.108 7.108 0 0 0 6.738 11.4zm-5.916 -9.664a5.348 5.348 0 0 1 9.932 2.894 3.37 3.37 0 1 0 -0.23 1.362 5.342 5.342 0 1 1 -9.702 -4.256zm46.46 9.664a7.036 7.036 0 1 0 -6.74 -11.4 7.106 7.106 0 0 0 6.74 11.4zm-0.36 -12.186a5.418 5.418 0 0 1 4.384 5.266 5.354 5.354 0 0 1 -9.512 3.364 5.144 5.144 0 0 1 -1.052 -2.2 3.39 3.39 0 1 0 -0.108 -1.102 5.336 5.336 0 0 1 6.288 -5.328zM158.086 332.34h-15.34a0.846 0.846 0 0 0 0 1.692h15.34a0.846 0.846 0 0 0 0 -1.692zm-79.594 0H21.818a0.846 0.846 0 0 0 0 1.692h56.674a0.846 0.846 0 0 0 0 -1.692zm7.45 2.774a0.81 0.81 0 0 0 -0.6 0.25c-0.414 0.414 -0.866 0.78 -0.6 1.36a0.708 0.708 0 0 0 0.34 0.4 0.892 0.892 0 0 0 0.652 0.09c0.278 -0.08 0.358 -0.2 0.8 -0.652a0.85 0.85 0 0 0 -0.592 -1.448zm7.5 0.686a0.848 0.848 0 0 0 -1.442 0.6 1.8 1.8 0 0 0 0.07 0.762 0.834 0.834 0 0 0 1.6 -0.34c0.002 -0.41 0.028 -0.822 -0.228 -1.022zm-16.982 2.758a0.816 0.816 0 0 0 -0.6 0.25c-0.42 0.422 -0.864 0.78 -0.6 1.362a0.72 0.72 0 0 0 0.34 0.4 0.874 0.874 0 0 0 0.652 0.092c0.278 -0.08 0.346 -0.2 0.8 -0.652a0.854 0.854 0 0 0 -0.592 -1.452zm190.208 -24.582H260.2a0.846 0.846 0 0 0 0 1.692h6.468a0.846 0.846 0 0 0 0 -1.692zm2.584 8.2h-3.024a0.842 0.842 0 1 0 0 1.682h3.024a0.842 0.842 0 0 0 0 -1.682zm-123.352 3.846h4.746a0.842 0.842 0 1 0 0 -1.682H145.9a0.842 0.842 0 0 0 0 1.682zm11.214 -1.734a0.842 0.842 0 1 0 0 -1.682h-3.024a0.842 0.842 0 0 0 0 1.682zm224.274 0.21c-2.442 0.048 -4.876 0.092 -7.32 0.142a0.846 0.846 0 0 0 0 1.692c2.444 -0.05 4.878 -0.09 7.32 -0.14a0.848 0.848 0 0 0 0 -1.694zm7.77 -0.6h-2.584a0.842 0.842 0 0 0 0 1.682h2.584a0.842 0.842 0 1 0 0 -1.682z" fill="#000000" stroke-width="1"></path><path d="M374.6 103.06a44.076 44.076 0 0 0 -4.6 -12.526c-0.512 -0.962 -1.964 -0.11 -1.462 0.85 0.1 0.19 0.19 0.4 0.29 0.582a0.858 0.858 0 0 0 -0.2 0.13c-5.706 5.68 -6.77 13.932 -4.496 18.174 3.164 5.904 12.236 2.662 10.468 -7.21zm-2.874 6.978c-3.504 3.862 -8.4 0.19 -6.7 -7.91a17.6 17.6 0 0 1 4.566 -8.6 47.758 47.758 0 0 1 2.754 7.368c0.822 2.904 1.628 6.666 -0.62 9.142z" fill="#ffd35c" stroke-width="1"></path></svg>