<svg xmlns="http://www.w3.org/2000/svg" fill="none" viewBox="0 0 400 400" height="300" width="300" id="Post-It-To-Do-Notes-1--Streamline-New-York.svg"><desc>Post It To Do Notes 1 Streamline Illustration: https://streamlinehq.com</desc><g id="post-it-to-do-notes-1--communication-post-it-to-do-notes-1"><g id="color"><g id="group"><path id="vector" fill="#2755a0" d="M337.656 182.8922c-0.008 -4.9846 -1.492 -9.8554 -4.26 -14 -6.41 -8.4 -17.082 -6 -24.322 1.986 -10.166 11.2 -23.344 40.3998 -29.626 54.1278 -1.948 3.74 -3.472 7.688 -4.54 11.768 5.376 5.444 9.608 11.91 12.442 19.016 1.578 3.832 2.444 7.92 2.558 12.062 12.774 6.6 29.276 2.318 39.3 -7.812 -10.444 -1.8 -21 -9.79 -26.084 -22.432 -2.176 -6.032 -3.32 -12.388 -3.386 -18.8 -0.358 -7.226 -0.336 -14.468 -0.156 -21.6978 0.004 -0.189 0.08 -0.3694 0.214 -0.503 0.132 -0.1336 0.314 -0.21 0.502 -0.213h36.8c0.156 0.0002 0.308 0.0516 0.432 0.1462 0.126 0.0946 0.216 0.2272 0.258 0.3778 0.228 -4.674 0.184 -9.3572 -0.132 -14.026Z" stroke-width="1"></path><path id="vector_2" fill="#ffd2d2" d="M324.8 142.6c-0.21 -0.05 0.34 0.106 0.2 0.74 -0.52 4.1722 -1.868 8.1988 -3.964 11.844 0.67 0.4652 1.45 0.746 2.262 0.8136 0.812 0.0678 1.628 -0.0796 2.364 -0.4276C329.92 153.4 330 143.812 324.8 142.6Z" stroke-width="1"></path><path id="vector_3" fill="#000000" d="M328.226 152.36c-1.342 3.774 -4.756 4.514 -7.17 2.8 2.092 -3.6394 3.436 -7.66 3.954 -11.826 0.024 -0.099 0.028 -0.202 0.01 -0.3024 -0.018 -0.1004 -0.056 -0.1962 -0.112 -0.2812 -0.056 -0.085 -0.13 -0.1576 -0.216 -0.213 -0.086 -0.0554 -0.182 -0.0926 -0.282 -0.1094 -1.498 -0.4058 -3.086 -0.3406 -4.546 0.1868 -1.46 0.5274 -2.722 1.4914 -3.616 2.7612 -4.66 6.67 -5.422 5.158 -7.244 6.506 -0.546 0.381 -1.008 0.8724 -1.352 1.4424 -0.346 0.57 -0.568 1.206 -0.652 1.867 -0.084 0.661 -0.03 1.3322 0.162 1.9708 0.19 0.6384 0.512 1.2298 0.946 1.7358 2.272 2.504 7.116 2.826 10.902 -1.108 3.352 3.522 8.634 3.344 10.47 0.812 1.48 -2.04 -0.098 -4.278 -1.254 -6.242Z" stroke-width="1"></path><path id="vector_4" fill="#000000" d="M373.738 162.89c-1.314 -0.1792 -2.652 -0.0288 -3.892 0.438 -1.242 0.467 -2.346 1.2354 -3.216 2.236 -1.834 2.126 -9.834 11.534 -12.018 14.098 2.272 1.9546 4.054 4.4162 5.2 7.186 3.486 -1.017 6.838 -2.443 9.988 -4.248 5.482 -3.484 8.344 -9.372 13.446 -13.582 -4.954 -3.928 -6.646 -5.74 -9.508 -6.128Z" stroke-width="1"></path><path id="vector_5" fill="#ffd2d2" d="M390 171.338c-0.004 -0.6572 -0.164 -1.3038 -0.468 -1.8864 -0.304 -0.5826 -0.744 -1.0844 -1.28 -1.4636 -4.892 -3.476 -11.13 9.952 -18.454 14.6 -3.144 1.8058 -6.49 3.2338 -9.97 4.254 -0.964 -2.326 -2.378 -4.4392 -4.16 -6.218 -6.786 -6.84 -12.048 -1.984 -8.872 5.554 1.132 2.686 2.584 5.258 3.918 7.852 -3.046 9.502 -5.2 19.4 -7.384 29.24 -1.574 -8.866 -3.706 -14.744 -5.528 -26.358 -0.042 -0.1506 -0.132 -0.2832 -0.258 -0.3778 -0.124 -0.0946 -0.276 -0.1458 -0.432 -0.1462h-36.8c-0.188 0.0032 -0.37 0.0796 -0.502 0.2132 -0.134 0.1336 -0.21 0.314 -0.214 0.5028 -0.18 7.23 -0.2 14.472 0.156 21.698 0.066 6.412 1.21 12.768 3.386 18.8 5.152 12.8 16.84 22.928 32.022 22.914 5.028 0.128 10.03 -0.772 14.698 -2.646 4.668 -1.874 8.904 -4.682 12.448 -8.252 4.898 -4.96 8.526 -10.552 11.4 -22.018 1.916 -7.864 2.846 -15.936 2.774 -24.03 4.152 -2.808 7.74 -6.3682 10.578 -10.498 1.744 -2.933 2.376 -6.3958 1.78 -9.756 -0.062 -0.4582 -0.176 -0.9078 -0.34 -1.34 0.08 -0.274 0.134 -0.5554 0.16 -0.84 0.17 -1.1748 0.028 -2.3738 -0.414 -3.476 0.902 -2.0062 1.494 -4.1378 1.756 -6.322Z" stroke-width="1"></path><path id="vector_6" fill="#000000" d="M300.56 186.626c-0.494 2.6246 -0.81 5.2792 -0.948 7.946 -0.048 0.92 1.382 0.916 1.43 0 0.13 -2.5392 0.428 -5.0668 0.896 -7.566 0.17 -0.9 -1.208 -1.284 -1.378 -0.38Z" stroke-width="1"></path><path id="vector_7" fill="#ff4848" d="M381.364 182.8862c-1.516 4.174 -3.682 5.728 -6.784 8.552 -0.682 0.622 0.332 1.63 1 1.012 3.372 -3.07 5.492 -4.616 7.152 -9.184 0.326 -0.866 -1.056 -1.24 -1.368 -0.38Z" stroke-width="1"></path><path id="vector_8" fill="#ff4848" d="M378.2 195.0822c-0.726 0.546 -0.014 1.788 0.722 1.234 2.6 -1.95 6.264 -5.468 7.054 -8.616 0.038 -0.1786 0.006 -0.3648 -0.088 -0.5208 -0.096 -0.1558 -0.246 -0.2696 -0.422 -0.3182 -0.176 -0.0484 -0.364 -0.028 -0.526 0.0572 -0.16 0.0854 -0.284 0.229 -0.342 0.4018 -0.686 2.764 -4.218 6.128 -6.398 7.762Z" stroke-width="1"></path><path id="vector_9" fill="#ff4848" d="m345.676 252.492 -8.698 0.26c-0.918 0.028 -0.922 1.458 0 1.43l8.698 -0.26c0.924 -0.028 0.924 -1.458 0 -1.43Z" stroke-width="1"></path><path id="vector_10" fill="#000000" d="M362.058 110.8562v32.174c0.01 0.183 0.09 0.3554 0.222 0.4816 0.134 0.1262 0.31 0.1966 0.494 0.1966 0.182 0 0.358 -0.0704 0.492 -0.1966 0.132 -0.1262 0.212 -0.2986 0.222 -0.4816v-32.174c-0.01 -0.1832 -0.09 -0.3556 -0.222 -0.4818 -0.134 -0.126 -0.31 -0.1964 -0.492 -0.1964 -0.184 0 -0.36 0.0704 -0.494 0.1964 -0.132 0.1262 -0.212 0.2986 -0.222 0.4818Z" stroke-width="1"></path><path id="vector_11" fill="#000000" d="M345.858 131.358c-0.466 -0.6 -1.704 0.116 -1 1.012l10.212 13.2c0.474 0.612 1.702 -0.118 1.012 -1.012l-10.224 -13.2Z" stroke-width="1"></path><path id="vector_12" fill="#000000" d="m370.4 145.4762 10.4 -14.856c0.528 -0.756 -0.71 -1.47 -1.236 -0.722l-10.4 14.856c-0.536 0.756 0.702 1.47 1.236 0.722Z" stroke-width="1"></path><path id="vector_13" fill="#000000" d="M69.09 180.326c-1.23 -5.038 -4.178 -10.438 -9.106 -12.044 -5.548 -1.8 -13.834 1.658 -16.936 9.898 -2.45 6.51 -1.698 14.46 -7.914 19.286 -3.586 2.782 -6.562 2.376 -9.656 4.166 -1.5036 0.862 -2.6556 2.226 -3.2536 3.854 -0.5978 1.626 -0.6038 3.412 -0.0164 5.042 0.512 1.664 1.27 3.614 -0.47 4.82 -1.6086 0.774 -3.3523 1.228 -5.13398 1.336 -0.84842 0.132 -1.6497 0.476 -2.32966 1.002 -0.67998 0.524 -1.21664 1.212 -1.56034 1.998 -0.18176 0.7 -0.1658 1.436 0.04606 2.126 0.21188 0.69 0.61136 1.308 1.15394 1.786 0.716 0.8 2.036 1.8 1.8 3.034 -0.238 1.2 -2.036 2.058 -3.376 3.374 -5.07 4.976 -1.212 10.834 5.69 12.17 2.05418 -11.456 7.33738 -22.086 15.22798 -30.642 5.774 -6.45 12.186 -11.854 21.2 -13.424 4.6654 -0.824 9.4656 -0.4026 13.916 1.222 1.747 -6.1876 1.993 -12.7024 0.718 -19.004Zm-5.18 4.31c-1.812 5.94 -8.648 3.612 -9.97 -1.356 -0.3304 -1.1616 -0.2856 -2.3978 0.1282 -3.5324 0.4136 -1.1346 1.1752 -2.1096 2.1758 -2.7856 3.694 -2.02 9.156 2.806 7.666 7.674Z" stroke-width="1"></path><path id="vector_14" fill="#c0c195" d="M56.566 248.08c-2.6286 -5.02 -4.55 -10.38 -5.71 -15.928 -0.0272 -0.106 -0.03 -0.216 -0.0082 -0.324 0.0218 -0.108 0.0676 -0.208 0.134 -0.296 0.0664 -0.088 0.1516 -0.158 0.2492 -0.208 0.0978 -0.05 0.2054 -0.076 0.315 -0.078 4.924 0.114 12.97 -0.276 17.432 -2.4 7.2 -3.426 10.894 -10.418 11.834 -18.4 0.0248 -0.196 0.1192 -0.378 0.2658 -0.51 0.1468 -0.132 0.3364 -0.208 0.5342 -0.214 -2.9142 -4.36 -7.033 -7.78 -11.8552 -9.8438 -4.8224 -2.0628 -10.1402 -2.68 -15.3068 -1.776 -8.936 1.556 -15.372 6.9138 -21.2 13.4238 -13.05 14.572 -17.89198 31.982 -15.46998 48.214 3.19998 21.496 24.91398 36 46.46798 33.176 12.6282 -1.726 24.0636 -8.368 31.818 -18.484 -17.974 -1.13 -31.374 -10.752 -39.5 -26.352Z" stroke-width="1"></path><path id="vector_15" fill="#ff4848" d="M142.982 180.788c-3.8166 -0.9074 -7.8094 -0.7456 -11.54 0.468 0.312 -4.72 1.572 -13.87 -2.134 -16.722 -0.5518 -0.4182 -1.2048 -0.6822 -1.8922 -0.7652 -0.6874 -0.0828 -1.3844 0.0182 -2.0198 0.2932 -3.11 1.306 -3.68 5.2 -3.628 8.166 0.413 3.251 -0.2054 6.5494 -1.768 9.43 -3.294 6.228 -8.964 10.084 -16.174 27.136 -2.98 7.048 -5.368 14.332 -7.686 21.6 -4.1946 -7.15 -8.908 -13.984 -14.102 -20.446 -0.426 -0.494 -1.152 -0.076 -1.22 0.506 -0.942 8 -4.65 14.976 -11.834 18.4 -4.462 2.126 -12.51 2.516 -17.432 2.4 -0.1096 0.002 -0.2172 0.028 -0.315 0.078 -0.0976 0.05 -0.1828 0.12 -0.2492 0.208 -0.0664 0.088 -0.1122 0.188 -0.134 0.296 -0.0218 0.106 -0.019 0.218 0.0082 0.324 2.372 12.214 9.75 26.076 21.294 34.2 8.569 5.834 18.8108 8.706 29.164 8.178 6.7082 0.004 13.236 -2.172 18.6 -6.2 16.662 -12.414 22.732 -44.318 18.078 -65.654 1.2746 0.778 2.468 1.68 3.562 2.696 3.706 2.46 8.718 -0.778 6.888 -6.152 -1.0954 -2.8982 -3.1342 -5.3434 -5.788 -6.942 3.57 0.326 5.724 -1.142 6.53 -2.824 1.66 -3.5 -2.138 -7.384 -6.208 -8.674Z" stroke-width="1"></path><path id="vector_16" fill="#fc9070" d="m102.81 268 6.71 -1.654c0.1728 -0.058 0.3164 -0.182 0.4016 -0.342 0.0854 -0.162 0.1058 -0.35 0.0574 -0.526 -0.0486 -0.176 -0.1624 -0.326 -0.3184 -0.422 -0.1558 -0.094 -0.342 -0.126 -0.5206 -0.088l-6.71 1.654c-0.1726 0.058 -0.3164 0.182 -0.4016 0.342 -0.0854 0.162 -0.1058 0.35 -0.0574 0.526 0.0486 0.176 0.1624 0.326 0.3184 0.422 0.1558 0.094 0.3422 0.126 0.5206 0.088Z" stroke-width="1"></path><path id="vector_17" fill="#ff4848" d="M62.05 178.242c-0.7104 -0.7946 -1.6526 -1.3458 -2.6936 -1.5754 -1.0408 -0.2298 -2.1276 -0.1264 -3.1064 0.2954 -1.0018 0.6754 -1.7644 1.65 -2.1792 2.7846 -0.415 1.1346 -0.4606 2.3712 -0.1308 3.5334 0.878 3.296 4.666 5.952 7.622 4.472 2.688 -1.352 3.9 -6.228 0.488 -9.51Z" stroke-width="1"></path><path id="vector_18" fill="#fc9070" d="M121.61 191.8002c1.358 -2.313 3.1918 -4.311 5.38 -5.862 0.746 -0.526 0.032 -1.766 -0.722 -1.234 -2.3944 1.682 -4.403 3.855 -5.892 6.374 -0.0832 0.1628 -0.101 0.3512 -0.0498 0.5268 0.0514 0.1756 0.1678 0.3248 0.3258 0.417 0.1578 0.0924 0.345 0.121 0.523 0.0796 0.1782 -0.0412 0.3338 -0.1492 0.435 -0.3014Z" stroke-width="1"></path><path id="vector_19" fill="#fc9070" d="M127.69 195.3242c0.8834 -0.9952 1.9798 -1.7782 3.2076 -2.291 1.228 -0.513 2.5556 -0.7422 3.8844 -0.671 0.92 0.05 0.916 -1.382 0 -1.43 -1.517 -0.0736 -3.0314 0.1916 -4.433 0.7762 -1.4018 0.5848 -2.6558 1.4742 -3.671 2.6038 -0.61 0.688 0.398 1.7 1.012 1.012Z" stroke-width="1"></path><path id="vector_20" fill="#77751e" d="M52.174 228.926c-0.5852 -3.176 -0.7746 -6.412 -0.564 -9.636 0.058 -0.918 -1.372 -0.916 -1.43 0 -0.209 3.352 -0.0028 6.716 0.614 10.016 0.168 0.904 1.546 0.52 1.38 -0.38Z" stroke-width="1"></path><path id="vector_21" fill="#000000" d="M29.546 184.2282c2.558 -9.762 11.8 -17.616 19.252 -19.292 0.898 -0.2 0.518 -1.58 -0.38 -1.38 -7.832 1.76 -17.6 10.146 -20.25 20.29 -0.0394 0.179 -0.0088 0.3662 0.0856 0.5232 0.0946 0.1572 0.2456 0.272 0.4224 0.321 0.1766 0.049 0.3652 0.0282 0.5272 -0.0578 0.1618 -0.0858 0.2844 -0.2306 0.3428 -0.4044Z" stroke-width="1"></path><path id="vector_22" fill="#000000" d="M44.874 160.852c0.836 -0.386 0.11 -1.618 -0.72 -1.236 -10.668 4.918 -18.354 11.4 -20.6 23.42 -0.168 0.9 1.21 1.284 1.378 0.38 2.16 -11.568 9.412 -17.71 19.942 -22.564Z" stroke-width="1"></path><path id="vector_23" fill="#000000" d="M156.436 205.774c-0.676 -0.624 -1.69 0.386 -1.012 1.012l11.052 10.2c0.676 0.624 1.69 -0.386 1.012 -1l-11.052 -10.212Z" stroke-width="1"></path><path id="vector_24" fill="#000000" d="M174.612 212.2c0.828 0.4 1.554 -0.842 0.722 -1.236l-17.186 -8.124c-0.826 -0.4 -1.554 0.842 -0.722 1.236l17.186 8.124Z" stroke-width="1"></path><path id="vector_25" fill="#ffc431" d="M289.178 261.698c-2.618 -9.952 -7.96 -18.978 -15.424 -26.064 -1.56 -1.454 -3.232 -2.782 -5 -3.974 0.096 0.068 0.174 0.16 0.226 0.266 0.052 0.106 0.078 0.222 0.074 0.34 -0.004 0.118 -0.038 0.232 -0.096 0.334 -0.06 0.102 -0.144 0.188 -0.244 0.25 -2.124 1.3 -4.312 2.49 -6.556 3.568 -3.858 1.838 -6.2 3.04 -9.85 2.344 -0.698 -0.14 -1.374 -0.384 -2 -0.724 -1.374 3.978 -4.082 7.356 -7.666 9.562 2.298 6.678 3.192 13.76 2.622 20.8 1.194 -2.722 2.562 -5.364 4.096 -7.91 0.076 -0.142 0.2 -0.25 0.352 -0.304 0.15 -0.054 0.316 -0.05 0.464 0.01 0.228 0.05 -2.146 -1 28.812 12.9 0.162 0.098 0.28 0.254 0.328 0.438 0.046 0.182 0.022 0.376 -0.072 0.54 -2.452 5.266 -5.302 11.046 -7.97 16.068 -5.88 11.056 -10.368 15.968 -16.648 21.088 21.974 -2.764 39.174 -27.494 34.552 -49.532Z" stroke-width="1"></path><path id="vector_26" fill="#ffc431" d="M253.042 225.488c-0.05 0.466 -0.412 3.264 -0.416 3.286 1.098 -0.576 2.234 -1.076 3.4 -1.5 0.688 -0.378 1.448 -0.606 2.23 -0.674 -1.706 -0.51 -3.45 -0.882 -5.214 -1.112Z" stroke-width="1"></path><path id="vector_27" fill="#ffc431" d="M207.278 254.8c-2.554 4.714 -4.386 9.782 -5.44 15.038 -0.44 4.99 0.212 10.016 1.91 14.728 2.426 -9.168 5.876 -18.036 10.284 -26.434 -2.438 -0.686 -4.726 -1.816 -6.754 -3.332Z" stroke-width="1"></path><path id="vector_28" fill="#fc9070" d="M268.752 231.66c-3.228 -2.202 -6.766 -3.908 -10.5 -5.06 -0.782 0.066 -1.542 0.296 -2.23 0.674 -1.166 0.424 -2.302 0.924 -3.4 1.5 -0.428 3.166 -1.21 6.272 -2.328 9.264 1.394 0.636 2.914 0.946 4.446 0.904 1.532 -0.04 3.034 -0.432 4.392 -1.144 3.306 -1.42 6.506 -3.074 9.576 -4.948 0.1 -0.062 0.184 -0.146 0.244 -0.248 0.06 -0.102 0.094 -0.218 0.098 -0.336 0.004 -0.116 -0.02 -0.234 -0.072 -0.34 -0.052 -0.106 -0.13 -0.198 -0.226 -0.266Z" stroke-width="1"></path><path id="vector_29" fill="#000000" d="M272.842 209.902c-0.016 -0.084 -0.046 -0.166 -0.086 -0.242 -4.4 -7.34 -4 -10.76 -6.556 -12.894 -0.314 -0.3736 -0.748 -0.6292 -1.226 -0.7246 -0.48 -0.0956 -0.976 -0.0254 -1.41 0.199 -0.434 0.2244 -0.78 0.5898 -0.978 1.036 -0.2 0.4462 -0.242 0.9468 -0.118 1.4196 0.508 3.844 4.492 7.098 6.158 8.786 3 3.042 3.258 3.646 3.98 3.04 0.09 -0.074 0.16 -0.17 0.202 -0.278 0.042 -0.108 0.054 -0.228 0.034 -0.342Z" stroke-width="1"></path><path id="vector_30" fill="#fc9070" d="M278.978 273.09c-31.662 -14.214 -28.584 -12.85 -28.812 -12.9 -0.148 -0.062 -0.314 -0.064 -0.464 -0.01 -0.152 0.054 -0.276 0.162 -0.352 0.304 -1.534 2.546 -2.902 5.188 -4.096 7.91 0.828 -12.658 -2.712 -25.216 -10.03 -35.578 -1.25 -1.992 -2.846 -3.742 -4.716 -5.168 -0.804 -0.654 -1.826 -0.978 -2.86 -0.906 -1.034 0.072 -2 0.534 -2.706 1.294 -1.706 2.066 -1.138 4.932 -0.436 7.286 0.36 1.202 0.822 2.372 1.378 3.498 -2.886 -2.558 -5.8 -5.384 -9.884 -4.558 -5.438 1.096 -5.388 7.468 -1.238 11.548 -2.44 -1.014 -5.168 -1.092 -7.66 -0.214 -3.456 1.516 -4.558 4.938 -0.95 8.298 2.288 1.966 4.976 3.41 7.88 4.23 -2.798 5.468 -5.27 11.096 -7.4 16.856 -4.37 11.876 -6.26 23.026 1.376 33.144 6.078 8.056 16.03 13.58 26.452 12.432 7.474 -1.104 14.47 -4.346 20.146 -9.332 6.276 -5.118 10.75 -10 16.648 -21.088 2.67 -5.026 5.514 -10.8 7.97 -16.068 0.094 -0.164 0.122 -0.356 0.076 -0.538 -0.046 -0.184 -0.162 -0.342 -0.322 -0.44Z" stroke-width="1"></path><path id="vector_31" fill="#fc9070" d="M270.468 210.688c-5.6 -4.072 -15.742 5.64 -7.458 11.15 0.7 0.548 1.51 0.94 2.376 1.146 0.866 0.206 1.766 0.22 2.638 0.046 0.872 -0.176 1.696 -0.538 2.416 -1.062 0.718 -0.526 1.314 -1.2 1.748 -1.976 0.808 -1.516 1.076 -3.262 0.764 -4.952 -0.312 -1.69 -1.188 -3.224 -2.484 -4.352Z" stroke-width="1"></path><path id="vector_32" fill="#ff4848" d="M219.53 307.948c-0.674 -0.624 -1.688 0.386 -1.012 1.012l5.322 4.928c0.674 0.626 1.688 -0.384 1 -1l-5.31 -4.94Z" stroke-width="1"></path><path id="vector_33" fill="#ff4848" d="M242.262 276.03c-0.934 3.356 -1.952 6.684 -3.056 9.982 -0.294 0.874 1.088 1.25 1.38 0.38 1.108 -3.298 2.126 -6.626 3.054 -9.982 0.038 -0.178 0.006 -0.364 -0.088 -0.52 -0.096 -0.156 -0.246 -0.27 -0.422 -0.318 -0.176 -0.05 -0.364 -0.028 -0.526 0.056 -0.16 0.086 -0.284 0.23 -0.342 0.402Z" stroke-width="1"></path><path id="vector_34" fill="#ff4848" d="M225.46 250.942c-0.718 -0.556 -1.736 0.448 -1.01 1.012 1.798 1.378 3.106 3.294 3.738 5.468 0.058 0.172 0.182 0.316 0.342 0.402 0.162 0.086 0.35 0.106 0.526 0.056 0.176 -0.048 0.326 -0.162 0.422 -0.318 0.094 -0.156 0.126 -0.342 0.088 -0.52 -0.69 -2.416 -2.126 -4.552 -4.106 -6.1Z" stroke-width="1"></path><path id="vector_35" fill="#ff4848" d="M232.052 244.96c-0.572 -0.72 -1.578 0.298 -1.012 1.012 1.502 1.894 2.694 4.012 3.536 6.278 0.316 0.856 1.7 0.486 1.378 -0.38 -0.926 -2.496 -2.244 -4.828 -3.902 -6.91Z" stroke-width="1"></path><path id="vector_36" fill="#000000" d="M266.524 315.28c-7.922 6.494 -17.146 11.208 -27.05 13.824 -0.178 0.054 -0.328 0.176 -0.418 0.34 -0.088 0.164 -0.112 0.356 -0.062 0.534 0.05 0.18 0.168 0.334 0.328 0.428 0.16 0.094 0.352 0.122 0.532 0.078 10.14 -2.69 19.582 -7.532 27.682 -14.2 0.712 -0.576 -0.306 -1.582 -1.012 -1.004Z" stroke-width="1"></path><path id="vector_37" fill="#000000" d="M243.8 333.732c-0.862 0.302 -0.49 1.684 0.38 1.378 9.342 -3.262 18.14 -7.914 26.094 -13.8 0.732 -0.542 0.02 -1.784 -0.722 -1.234 -7.85 5.818 -16.532 10.422 -25.752 13.656Z" stroke-width="1"></path><path id="vector_38" fill="#fc9070" d="M252.154 257.8c1.866 -3.912 3.574 -7.894 5.122 -11.946 0.328 -0.86 -1.054 -1.232 -1.38 -0.38 -1.506 3.932 -3.164 7.798 -4.978 11.6 -0.392 0.826 0.84 1.552 1.236 0.726Z" stroke-width="1"></path><path id="vector_39" fill="#78b5ff" d="M104.612 79.456c-1.624 -0.046 -6.496 0 -21.67 0 -0.1888 0.003 -0.3688 0.0796 -0.5022 0.2132 -0.1332 0.1338 -0.2092 0.314 -0.2118 0.5028v16.968c0.0026 0.1886 0.0786 0.3686 0.212 0.502 0.1334 0.1334 0.3134 0.2094 0.502 0.212h22.108c0.1888 -0.0026 0.3692 -0.0786 0.5028 -0.2118 0.1336 -0.1334 0.2102 -0.3134 0.2132 -0.5022 0 -10.616 0.028 -14.698 0 -16.308 -0.026 -1.216 -0.004 -1.344 -1.154 -1.376Z" stroke-width="1"></path><path id="vector_40" fill="#78b5ff" d="M304.548 79.4522c-163.246 0 -189.82 -0.078 -194.284 0.074 -1.084 0.036 -1.134 0.018 -1.166 1 -0.042 1.336 0 5.152 0 16.6 0.0032 0.1886 0.0796 0.3688 0.2132 0.502 0.1338 0.1334 0.314 0.2094 0.5028 0.212h194.736c0.188 -0.0026 0.37 -0.0786 0.502 -0.212 0.134 -0.1332 0.21 -0.3134 0.214 -0.502v-16.958c-0.002 -0.1894 -0.08 -0.3704 -0.214 -0.5042 -0.134 -0.1338 -0.314 -0.2098 -0.504 -0.2118Z" stroke-width="1"></path><path id="vector_41" fill="#cceaff" d="M105.05 108.4722H82.942c-0.1888 0.003 -0.3688 0.0796 -0.5022 0.2132 -0.1332 0.1336 -0.2092 0.314 -0.2118 0.5028v18.2c0.0026 0.1888 0.0786 0.369 0.2118 0.5028 0.1334 0.1336 0.3134 0.21 0.5022 0.2132 23.836 0 22.262 0.108 22.612 -0.214 0.312 -0.414 0.212 1.43 0.212 -18.704 -0.003 -0.1888 -0.0796 -0.3688 -0.2132 -0.5022 -0.1336 -0.1332 -0.314 -0.2092 -0.5028 -0.2118Z" stroke-width="1"></path><path id="vector_42" fill="#cceaff" d="M105.05 129.5782H82.942c-0.1888 0.003 -0.3688 0.0796 -0.5022 0.2132 -0.1332 0.1336 -0.2092 0.314 -0.2118 0.5028v18.2c0.0026 0.1884 0.0786 0.3686 0.212 0.502 0.1334 0.1332 0.3134 0.2094 0.502 0.212 23.836 0 22.262 0.108 22.612 -0.212 0.308 -0.4 0.212 1.474 0.212 -18.704 -0.003 -0.1888 -0.0796 -0.369 -0.2132 -0.5022 -0.1336 -0.1334 -0.314 -0.2094 -0.5028 -0.2118Z" stroke-width="1"></path><path id="vector_43" fill="#cceaff" d="M105.05 150.418H82.942c-0.1886 0.0026 -0.3686 0.0786 -0.502 0.212 -0.1334 0.1334 -0.2094 0.3134 -0.212 0.502v18.2c0.0026 0.1886 0.0786 0.3686 0.212 0.502 0.1334 0.1334 0.3134 0.2094 0.502 0.212 23.836 0 22.262 0.108 22.612 -0.212 0.308 -0.412 0.212 1.432 0.212 -18.706 -0.004 -0.188 -0.081 -0.3672 -0.2146 -0.4996 -0.1336 -0.1324 -0.3132 -0.2078 -0.5014 -0.2104Z" stroke-width="1"></path><path id="vector_44" fill="#cceaff" d="M105.05 171.258H82.942c-0.1886 0.0026 -0.3686 0.0788 -0.502 0.212 -0.1334 0.1334 -0.2094 0.3136 -0.212 0.502v18.2c0.002 0.189 0.078 0.3696 0.2114 0.5034 0.1334 0.1338 0.3138 0.21 0.5026 0.2126 23.836 0 22.262 0.108 22.612 -0.212 0.312 -0.416 0.212 1.43 0.212 -18.706 -0.0036 -0.1884 -0.0804 -0.368 -0.214 -0.5008 -0.1336 -0.1328 -0.3136 -0.2086 -0.502 -0.2112Z" stroke-width="1"></path><path id="vector_45" fill="#2755a0" d="M154.846 108.5102c-1.578 -0.1 -8.968 -0.038 -45.034 -0.038 -0.189 0.003 -0.3692 0.0794 -0.5028 0.213 -0.1336 0.1336 -0.2102 0.314 -0.2132 0.503v80.986c0.0026 0.189 0.0788 0.3696 0.2126 0.5034 0.1336 0.1336 0.3144 0.21 0.5034 0.2126h3.758c3.2 -4.502 7.162 -8.706 8.068 -13.85 0.1984 -1.5962 0.2418 -3.2076 0.13 -4.812 -0.052 -2.956 0.518 -6.86 3.628 -8.166 2.08 -0.874 4.58 -0.1 5.738 3.278 1.346 3.924 0.6 9.516 0.308 13.916 3.7306 -1.2136 7.7234 -1.3756 11.54 -0.468 5.374 1.702 8.656 7.066 5.076 10.102h6.8c0.1888 -0.0032 0.3688 -0.0796 0.5022 -0.2134 0.1332 -0.1336 0.2092 -0.314 0.2118 -0.5026 0 -68.28 0.136 -79.238 -0.018 -81.064 -0.03 -0.254 -0.044 -0.558 -0.708 -0.6Z" stroke-width="1"></path><path id="vector_46" fill="#2755a0" d="M204.114 108.4962c-2.114 -0.08 -10.51 -0.024 -44.748 -0.024 -0.1888 0.003 -0.3688 0.0796 -0.5022 0.2132 -0.1332 0.1338 -0.2092 0.314 -0.2118 0.5028v55.012c0.0026 0.1886 0.0786 0.3686 0.212 0.502 0.1334 0.1334 0.3134 0.2094 0.502 0.212H204.4c0.188 -0.0026 0.368 -0.0786 0.502 -0.212s0.21 -0.3134 0.212 -0.502c0 -41.636 0.1 -51.904 0.012 -54.52 -0.03 -1.01 -0.034 -1.148 -1.012 -1.184Z" stroke-width="1"></path><path id="vector_47" fill="#d5e04f" d="M305.05 108.684c-0.432 -0.324 3.212 -0.212 -45.54 -0.212 -0.188 0.0032 -0.368 0.0796 -0.502 0.2134 -0.134 0.1336 -0.21 0.314 -0.212 0.5026v36.538c0.002 0.1886 0.078 0.3688 0.212 0.502 0.134 0.1334 0.314 0.2094 0.502 0.212h45.038c0.188 -0.0024 0.37 -0.0784 0.502 -0.2118 0.134 -0.1332 0.21 -0.3134 0.214 -0.5022 0 -39.172 0.112 -36.688 -0.214 -37.042Z" stroke-width="1"></path><path id="vector_48" fill="#000000" d="M147.578 120.344h-31.4c-0.183 0.0096 -0.3554 0.0892 -0.4816 0.2222 -0.1262 0.133 -0.1966 0.3094 -0.1966 0.4928s0.0704 0.3598 0.1966 0.4928c0.1262 0.133 0.2986 0.2126 0.4816 0.2222h31.4c0.1832 -0.0096 0.3556 -0.0892 0.4818 -0.2222 0.126 -0.133 0.1964 -0.3094 0.1964 -0.4928s-0.0704 -0.3598 -0.1964 -0.4928c-0.1262 -0.133 -0.2986 -0.2126 -0.4818 -0.2222Z" stroke-width="1"></path><path id="vector_49" fill="#000000" d="M147.578 126.676h-31.4c-0.183 0.0098 -0.3554 0.0892 -0.4816 0.2222 -0.1262 0.1332 -0.1966 0.3094 -0.1966 0.4928s0.0704 0.3598 0.1966 0.4928c0.1262 0.133 0.2986 0.2126 0.4816 0.2222h31.4c0.1832 -0.0096 0.3556 -0.0892 0.4818 -0.2222 0.126 -0.133 0.1964 -0.3094 0.1964 -0.4928s-0.0704 -0.3596 -0.1964 -0.4928c-0.1262 -0.133 -0.2986 -0.2124 -0.4818 -0.2222Z" stroke-width="1"></path><path id="vector_50" fill="#000000" d="M147.578 133h-31.4c-0.183 0.0096 -0.3554 0.0892 -0.4816 0.2222 -0.1262 0.1332 -0.1966 0.3094 -0.1966 0.4928s0.0704 0.3598 0.1966 0.4928c0.1262 0.133 0.2986 0.2126 0.4816 0.2222h31.4c0.1832 -0.0096 0.3556 -0.0892 0.4818 -0.2222 0.126 -0.133 0.1964 -0.3094 0.1964 -0.4928s-0.0704 -0.3596 -0.1964 -0.4928c-0.1262 -0.133 -0.2986 -0.2126 -0.4818 -0.2222Z" stroke-width="1"></path><path id="vector_51" fill="#2755a0" d="M166.34 121.774h31.4c0.1832 -0.0096 0.3556 -0.0892 0.4816 -0.2222 0.1262 -0.133 0.1966 -0.3094 0.1966 -0.4928s-0.0704 -0.3598 -0.1966 -0.4928c-0.126 -0.133 -0.2984 -0.2126 -0.4816 -0.2222h-31.4c-0.183 0.0096 -0.3554 0.0892 -0.4816 0.2222 -0.1262 0.133 -0.1966 0.3094 -0.1966 0.4928s0.0704 0.3598 0.1966 0.4928c0.1262 0.133 0.2986 0.2126 0.4816 0.2222Z" stroke-width="1"></path><path id="vector_52" fill="#2755a0" d="M166.34 128.106h31.4c0.1832 -0.0096 0.3556 -0.0892 0.4816 -0.2222 0.1262 -0.133 0.1966 -0.3094 0.1966 -0.4928s-0.0704 -0.3596 -0.1966 -0.4928c-0.126 -0.133 -0.2984 -0.2124 -0.4816 -0.2222h-31.4c-0.183 0.0098 -0.3554 0.0892 -0.4816 0.2222 -0.1262 0.1332 -0.1966 0.3094 -0.1966 0.4928s0.0704 0.3598 0.1966 0.4928c0.1262 0.133 0.2986 0.2126 0.4816 0.2222Z" stroke-width="1"></path><path id="vector_53" fill="#2755a0" d="M166.34 134.4362h31.4c0.1832 -0.0098 0.3556 -0.0894 0.4816 -0.2224 0.1262 -0.133 0.1966 -0.3094 0.1966 -0.4928 0 -0.1832 -0.0704 -0.3596 -0.1966 -0.4926 -0.126 -0.133 -0.2984 -0.2126 -0.4816 -0.2222h-31.4c-0.183 0.0096 -0.3554 0.0892 -0.4816 0.2222 -0.1262 0.133 -0.1966 0.3094 -0.1966 0.4926 0 0.1834 0.0704 0.3598 0.1966 0.4928 0.1262 0.133 0.2986 0.2126 0.4816 0.2224Z" stroke-width="1"></path><path id="vector_54" fill="#2755a0" d="M166.34 140.11h31.4c0.1832 -0.0098 0.3556 -0.0894 0.4816 -0.2224 0.1262 -0.133 0.1966 -0.3094 0.1966 -0.4926 0 -0.1834 -0.0704 -0.3598 -0.1966 -0.4928 -0.126 -0.133 -0.2984 -0.2126 -0.4816 -0.2222h-31.4c-0.183 0.0096 -0.3554 0.0892 -0.4816 0.2222 -0.1262 0.133 -0.1966 0.3094 -0.1966 0.4928 0 0.1832 0.0704 0.3596 0.1966 0.4926 0.1262 0.133 0.2986 0.2126 0.4816 0.2224Z" stroke-width="1"></path><path id="vector_55" fill="#2755a0" d="M197.734 146.44c0.1832 -0.0096 0.3556 -0.0892 0.4816 -0.2222 0.1262 -0.133 0.1966 -0.3094 0.1966 -0.4928s-0.0704 -0.3596 -0.1966 -0.4928c-0.126 -0.133 -0.2984 -0.2126 -0.4816 -0.2222H166.34c-0.183 0.0096 -0.3554 0.0892 -0.4816 0.2222 -0.1262 0.1332 -0.1966 0.3094 -0.1966 0.4928s0.0704 0.3598 0.1966 0.4928c0.1262 0.133 0.2986 0.2126 0.4816 0.2222h31.394Z" stroke-width="1"></path><path id="vector_56" fill="#2755a0" d="m283.07 135.018 14.246 -14.246c0.122 -0.1364 0.186 -0.3144 0.182 -0.4974 -0.006 -0.1828 -0.08 -0.3568 -0.21 -0.486 -0.13 -0.1294 -0.304 -0.204 -0.486 -0.209 -0.184 -0.005 -0.362 0.0604 -0.498 0.1824l-13.74 13.74 -9.52 -9.52c-0.136 -0.1268 -0.316 -0.1958 -0.5 -0.1928 -0.186 0.0032 -0.364 0.0784 -0.496 0.2096 -0.13 0.1314 -0.206 0.3086 -0.208 0.4942 -0.004 0.1858 0.066 0.3654 0.192 0.501l10.026 10.024c0.136 0.1318 0.318 0.2054 0.506 0.2054s0.37 -0.0736 0.506 -0.2054Z" stroke-width="1"></path><path id="vector_57" fill="#2755a0" d="M298.876 85.654h-14.114c-0.19 0 -0.37 0.0752 -0.504 0.2092 -0.134 0.1338 -0.21 0.3154 -0.21 0.5048s0.076 0.371 0.21 0.505c0.134 0.1338 0.314 0.209 0.504 0.209h14.114c0.19 0 0.37 -0.0752 0.504 -0.209 0.134 -0.134 0.21 -0.3156 0.21 -0.505s-0.076 -0.371 -0.21 -0.5048c-0.134 -0.134 -0.314 -0.2092 -0.504 -0.2092Z" stroke-width="1"></path><path id="vector_58" fill="#2755a0" d="M298.876 89.918h-14.114c-0.184 0.0096 -0.356 0.0892 -0.482 0.2222s-0.196 0.3094 -0.196 0.4928 0.07 0.3596 0.196 0.4928c0.126 0.133 0.298 0.2124 0.482 0.2222h14.114c0.184 -0.0098 0.356 -0.0892 0.482 -0.2222 0.126 -0.1332 0.196 -0.3094 0.196 -0.4928s-0.07 -0.3598 -0.196 -0.4928 -0.298 -0.2126 -0.482 -0.2222Z" stroke-width="1"></path><path id="vector_59" fill="#2755a0" d="m95.1 114.486 -5.8 5.8c-0.1086 0.1382 -0.1624 0.3116 -0.1514 0.4872 0.011 0.1754 0.0864 0.3406 0.2114 0.4642 0.125 0.1236 0.2912 0.1968 0.4668 0.2058 0.1756 0.009 0.3482 -0.047 0.4852 -0.1572l5.8 -5.8c0.1086 -0.1382 0.1624 -0.3116 0.1514 -0.4872 -0.011 -0.1754 -0.0862 -0.3406 -0.2114 -0.4642 -0.125 -0.1236 -0.291 -0.1968 -0.4666 -0.2058 -0.1756 -0.009 -0.3484 0.047 -0.4854 0.1572Z" stroke-width="1"></path><path id="vector_60" fill="#2755a0" d="M98.082 140.618c-1.2 1.04 -3.4 2.854 -4.94 2.026 -1.918 -1.028 5.042 -4.836 2.346 -7.242 -0.3672 -0.244 -0.7878 -0.3958 -1.2262 -0.4426 -0.4384 -0.0466 -0.8814 0.0134 -1.2918 0.1746 -2.0654 0.4826 -4.029 1.327 -5.8 2.494 -0.766 0.502 -0.052 1.742 0.722 1.234 1.7812 -1.2294 3.8042 -2.0646 5.934 -2.45 2.2 -0.32 -0.774 2.542 -1.976 4.302 -1.228 1.8 -0.05 3.454 2 3.536 2.018 -0.1826 3.8932 -1.1186 5.252 -2.622 0.698 -0.604 -0.328 -1.612 -1.02 -1.01Z" stroke-width="1"></path><path id="vector_61" fill="#2755a0" d="m94.11 160.676 4.904 -4.904c0.1086 -0.1384 0.1624 -0.3118 0.1514 -0.4872 -0.011 -0.1754 -0.0862 -0.3408 -0.2114 -0.4642 -0.125 -0.1236 -0.291 -0.1968 -0.4666 -0.2058 -0.1756 -0.009 -0.3484 0.047 -0.4854 0.1572l-4.902 4.892 -5 -4.99c-0.1364 -0.1134 -0.3102 -0.172 -0.4874 -0.1642 -0.1772 0.0076 -0.3452 0.081 -0.4714 0.2058 -0.126 0.1248 -0.201 0.2922 -0.2106 0.4694 -0.0094 0.177 0.0474 0.3514 0.1594 0.489l4.99 5 -4.902 4.902c-0.1102 0.137 -0.1662 0.3096 -0.1572 0.4852 0.009 0.1756 0.0822 0.3418 0.2058 0.4668 0.1236 0.125 0.2888 0.2002 0.4642 0.2114 0.1756 0.011 0.349 -0.043 0.4872 -0.1514l4.904 -4.904L98 166.6c0.1358 0.1268 0.3154 0.1958 0.501 0.1928 0.1858 -0.0032 0.363 -0.0784 0.4942 -0.2096 0.1314 -0.1314 0.2066 -0.3086 0.2096 -0.4942 0.0032 -0.1858 -0.066 -0.3654 -0.1928 -0.501l-4.902 -4.912Z" stroke-width="1"></path><path id="vector_62" fill="#2755a0" d="m97.84 177.182 -4.586 6.936 -3 -4.072c-0.54 -0.734 -1.782 -0.022 -1.234 0.722l3.648 4.954c0.0654 0.105 0.1564 0.1916 0.2646 0.2516 0.1082 0.06 0.2298 0.0916 0.3534 0.0916 0.1238 0 0.2454 -0.0316 0.3534 -0.0916 0.1082 -0.06 0.1992 -0.1466 0.2646 -0.2516l5.168 -7.818c0.51 -0.77 -0.726 -1.486 -1.232 -0.722Z" stroke-width="1"></path><path id="vector_63" fill="#78b5ff" d="M254.918 109.188c-0.002 -0.189 -0.078 -0.3696 -0.212 -0.5034 -0.134 -0.1336 -0.314 -0.21 -0.504 -0.2126 -34.8 0 -42.89 -0.062 -44.842 0.03 -0.694 0.032 -0.83 0.06 -0.864 0.736 -0.112 2.246 -0.046 14.236 -0.046 78.586 0 8.174 -0.346 16.36 -1.028 24.504 -0.54 6.446 -0.842 13.618 -4.546 19.17 -10.586 15.874 -31.472 -6.504 -43.038 13.54 -5.646 9.788 -4.278 22.868 -18.444 29.384 -7.71 3.546 -12.926 1.4 -18.822 1.87 -3.8684 0.338 -7.559 1.776 -10.6354 4.146 -3.0764 2.37 -5.41 5.57 -6.7246 9.224 -0.0396 0.15 -0.029 0.31 0.03 0.456 0.0592 0.144 0.1638 0.264 0.298 0.344l44.8 21c0.0954 0.052 0.2012 0.084 0.3098 0.09 0.1088 0.006 0.2176 -0.012 0.3184 -0.052 0.101 -0.042 0.1914 -0.104 0.2646 -0.186 0.0734 -0.08 0.1278 -0.176 0.1592 -0.28 0.7558 -2.788 2.0578 -5.396 3.8304 -7.676 1.7728 -2.28 3.9806 -4.184 6.4956 -5.604 6.636 -3.51 12.05 -0.642 18.49 -1.788 5.4526 -1.106 10.3502 -4.076 13.852 -8.4 7.078 -8.46 7.226 -19.2 11.07 -28.556 2.134 -5.2 2.646 -3.778 1.56 -4.658 -4.092 -3.314 -3.34 -7.13 0.4 -8.774 2.2 -0.812 4.614 -0.83 6.828 -0.056 1.044 0.294 0.97 0.444 0.514 -0.04 -0.872 -0.892 -1.556 -1.95 -2.014 -3.112 -0.458 -1.16 -0.678 -2.4 -0.65 -3.648 0.118 -1.104 0.594 -2.14 1.356 -2.95 0.762 -0.808 1.768 -1.344 2.864 -1.528 4.092 -0.826 7 2 9.884 4.558 -0.556 -1.126 -1.018 -2.296 -1.378 -3.498 -0.702 -2.354 -1.27 -5.22 0.436 -7.286 0.706 -0.758 1.672 -1.222 2.706 -1.294 1.034 -0.072 2.056 0.252 2.86 0.906 1.87 1.426 3.466 3.176 4.716 5.168 3.164 4.548 5.656 9.526 7.4 14.784 10.252 -5.616 10.438 -22.156 11.218 -32.902 1.37 -18.454 1.088 -17.48 1.088 -105.492Z" stroke-width="1"></path><path id="vector_64" fill="#2755a0" d="M217.138 185.354h30.778c0.184 -0.0096 0.356 -0.0892 0.482 -0.2222s0.196 -0.3094 0.196 -0.4928c0 -0.1832 -0.07 -0.3596 -0.196 -0.4926s-0.298 -0.2126 -0.482 -0.2224h-30.778c-0.184 0.0098 -0.356 0.0894 -0.482 0.2224s-0.196 0.3094 -0.196 0.4926c0 0.1834 0.07 0.3598 0.196 0.4928s0.298 0.2126 0.482 0.2222Z" stroke-width="1"></path><path id="vector_65" fill="#2755a0" d="M247.916 190.4322h-30.692c-0.184 0.0096 -0.356 0.0892 -0.482 0.2222s-0.196 0.3094 -0.196 0.4928c0 0.1832 0.07 0.3596 0.196 0.4926s0.298 0.2126 0.482 0.2224h30.692c0.184 -0.0098 0.356 -0.0894 0.482 -0.2224s0.196 -0.3094 0.196 -0.4926c0 -0.1834 -0.07 -0.3598 -0.196 -0.4928s-0.298 -0.2126 -0.482 -0.2222Z" stroke-width="1"></path><path id="vector_66" fill="#2755a0" d="M245.8 210.642h-30.688c-0.184 0.01 -0.356 0.09 -0.482 0.222 -0.126 0.134 -0.196 0.31 -0.196 0.494 0 0.182 0.07 0.358 0.196 0.492 0.126 0.132 0.298 0.212 0.482 0.222H245.8c0.184 -0.01 0.356 -0.09 0.482 -0.222 0.126 -0.134 0.196 -0.31 0.196 -0.492 0 -0.184 -0.07 -0.36 -0.196 -0.494 -0.126 -0.132 -0.298 -0.212 -0.482 -0.222Z" stroke-width="1"></path><path id="vector_67" fill="#2755a0" d="m196.736 257.24 -28.086 -12.374c-0.834 -0.368 -1.562 0.864 -0.722 1.236l28.086 12.374c0.834 0.366 1.562 -0.864 0.722 -1.236Z" stroke-width="1"></path><path id="vector_68" fill="#2755a0" d="m193.8 263.4 -28.086 -12.376c-0.834 -0.366 -1.564 0.866 -0.722 1.236l28.086 12.374c0.834 0.366 1.562 -0.864 0.722 -1.234Z" stroke-width="1"></path><path id="vector_69" fill="#2755a0" d="m183.846 284.218 -27.786 -13.03c-0.828 -0.388 -1.556 0.844 -0.722 1.234l27.786 13.032c0.83 0.388 1.556 -0.844 0.722 -1.236Z" stroke-width="1"></path><path id="vector_70" fill="#2755a0" d="m179.312 288.446 -27.786 -13.032c-0.828 -0.388 -1.556 0.844 -0.722 1.236L178.6 289.68c0.82 0.388 1.546 -0.844 0.712 -1.234Z" stroke-width="1"></path><path id="vector_71" fill="#2755a0" d="M88.822 89.6v-2.582c-0.0096 -0.183 -0.0892 -0.3554 -0.2222 -0.4816 -0.133 -0.1262 -0.3094 -0.1966 -0.4928 -0.1966s-0.3596 0.0704 -0.4928 0.1966c-0.133 0.1262 -0.2124 0.2986 -0.2222 0.4816V89.6c0.0098 0.1832 0.0892 0.3556 0.2222 0.4816 0.1332 0.1262 0.3094 0.1966 0.4928 0.1966s0.3598 -0.0704 0.4928 -0.1966c0.133 -0.126 0.2126 -0.2984 0.2222 -0.4816Z" stroke-width="1"></path><path id="vector_72" fill="#2755a0" d="M94.712 89.6v-2.582c-0.0098 -0.183 -0.0892 -0.3554 -0.2222 -0.4816 -0.1332 -0.1262 -0.3094 -0.1966 -0.4928 -0.1966s-0.3598 0.0704 -0.4928 0.1966c-0.133 0.1262 -0.2126 0.2986 -0.2222 0.4816V89.6c0.0096 0.1832 0.0892 0.3556 0.2222 0.4816 0.133 0.1262 0.3094 0.1966 0.4928 0.1966s0.3596 -0.0704 0.4928 -0.1966c0.133 -0.126 0.2124 -0.2984 0.2222 -0.4816Z" stroke-width="1"></path><path id="vector_73" fill="#2755a0" d="M100.292 89.6v-2.582c-0.0096 -0.183 -0.0892 -0.3554 -0.2222 -0.4816 -0.133 -0.1262 -0.3094 -0.1966 -0.4928 -0.1966s-0.3598 0.0704 -0.4928 0.1966c-0.133 0.1262 -0.2126 0.2986 -0.2222 0.4816V89.6c0.0096 0.1832 0.0892 0.3556 0.2222 0.4816 0.133 0.1262 0.3094 0.1966 0.4928 0.1966s0.3598 -0.0704 0.4928 -0.1966c0.133 -0.126 0.2126 -0.2984 0.2222 -0.4816Z" stroke-width="1"></path><path id="vector_74" fill="#2755a0" d="M190.586 87.8h-74.4c-0.1894 0 -0.371 0.0752 -0.5048 0.2092 -0.134 0.1338 -0.2092 0.3154 -0.2092 0.5048s0.0752 0.371 0.2092 0.505c0.1338 0.1338 0.3154 0.209 0.5048 0.209h74.4c0.1894 0 0.371 -0.0752 0.505 -0.209 0.1338 -0.134 0.209 -0.3156 0.209 -0.505s-0.0752 -0.371 -0.209 -0.5048c-0.134 -0.134 -0.3156 -0.2092 -0.505 -0.2092Z" stroke-width="1"></path><path id="vector_75" fill="#2755a0" d="m64.762 66.074 9.93 10.726c0.628 0.676 1.636 -0.336 1.012 -1.012l-9.93 -10.724c-0.628 -0.676 -1.636 0.336 -1.012 1.01Z" stroke-width="1"></path><path id="vector_76" fill="#2755a0" d="m312.438 78.0002 11.918 -11.918c0.122 -0.1366 0.186 -0.3146 0.182 -0.4974 -0.006 -0.183 -0.08 -0.357 -0.21 -0.4862 -0.13 -0.1292 -0.304 -0.204 -0.486 -0.209 -0.184 -0.0048 -0.362 0.0604 -0.498 0.1826l-11.916 11.916c-0.122 0.1362 -0.188 0.314 -0.182 0.497 0.004 0.183 0.08 0.357 0.208 0.4866 0.13 0.1294 0.304 0.2046 0.486 0.2098 0.184 0.0054 0.362 -0.0596 0.498 -0.1814Z" stroke-width="1"></path><path id="vector_77" fill="#fc9070" d="m280.718 269.842 2.432 -4.74c0.418 -0.818 -0.814 -1.542 -1.236 -0.722l-2.432 4.74c-0.418 0.818 0.814 1.542 1.236 0.722Z" stroke-width="1"></path></g></g><g id="line"><g id="group_2"><path id="vector_78" fill="#000000" d="M328.254 152.3662c1.708 -4.466 -0.506 -9.302 -4.386 -10.068 -1.43 -0.2752 -2.91 -0.131 -4.26 0.4156 -1.35 0.5464 -2.514 1.4718 -3.35 2.6644 -4.728 6.676 -5.442 5.174 -7.244 6.506 -0.546 0.3812 -1.008 0.8724 -1.352 1.4424 -0.346 0.57 -0.568 1.206 -0.652 1.8668 -0.084 0.661 -0.028 1.3322 0.162 1.9706 0.19 0.6384 0.512 1.2298 0.946 1.7362 2.286 2.518 7.16 2.82 10.938 -1.138 3.34 3.576 8.6 3.364 10.436 0.842 1.58 -2.178 -0.398 -4.652 -1.238 -6.238Zm-3.4 -8.234c4.732 2.078 2.498 13.084 -3.094 9.872 1.54 -3.1092 2.586 -6.44 3.096 -9.872h-0.002Zm-8.286 13.922c-0.934 0.7242 -2.062 1.1594 -3.24 1.2518 -1.18 0.0924 -2.36 -0.162 -3.396 -0.7318 -0.48 -0.3064 -0.872 -0.7308 -1.142 -1.2326 -0.268 -0.5018 -0.404 -1.0642 -0.392 -1.6334 0.01 -0.569 0.168 -1.1256 0.456 -1.6166 0.288 -0.491 0.696 -0.9 1.188 -1.1874 1.53 -0.5594 2.926 -1.4328 4.098 -2.564 1.242 -1.3096 2.364 -2.7288 3.352 -4.24 0.67 -0.9266 1.59 -1.6438 2.652 -2.0686 1.062 -0.4248 2.224 -0.5398 3.348 -0.3314 -1.056 5.164 -1.774 8.086 -4.2 11.5 -0.738 1.1002 -1.658 2.0656 -2.722 2.854h-0.002Zm11.738 -0.238c-1.296 1.728 -5.616 1.91 -8.316 -1.136 1.444 -1.836 0.77 -1.586 1.518 -1.222 0.998 0.5674 2.176 0.7244 3.288 0.4376 1.112 -0.2866 2.068 -0.9944 2.666 -1.9736 0.738 1.124 1.724 2.722 0.846 3.894h-0.002Z" stroke-width="1"></path><path id="vector_79" fill="#000000" d="M388.25 168.0002c-0.654 -0.4132 -1.426 -0.5988 -2.196 -0.5282 -0.77 0.0704 -1.494 0.3932 -2.062 0.9182 -0.264 0.2 -0.52 0.4 -0.772 0.612 -4.484 -3.554 -6.536 -5.7 -9.476 -6.1 -1.314 -0.1782 -2.65 -0.027 -3.892 0.4398 -1.24 0.4666 -2.346 1.2344 -3.216 2.2342 -1.8 2.094 -9.7 11.366 -12.022 14.09 -4.176 -3.554 -7.274 -2.504 -8.348 -0.016 -1.698 3.93 1.628 8.912 4.446 14.4 -3.042 9.4898 -5.186 19.3678 -7.382 29.2398 -1.418 -7.982 -3.2 -13.112 -4.912 -22.736 -1.058 -13.0458 0.696 -24.1658 -5.014 -31.6518 -1.326 -1.8752 -3.144 -3.3464 -5.256 -4.2506 -2.11 -0.9042 -4.43 -1.2058 -6.702 -0.8714 -9.502 1.184 -15.476 10.364 -20.486 18.546 -7.726 12.614 -14.966 28.3998 -21.504 42.6898 -1.95 3.74 -3.472 7.688 -4.54 11.768 0.41 0.4 0.824 0.8 1.218 1.224 0.8 -4.79 2.454 -7.674 4.938 -13.102 6.688 -14.612 15.472 -33.7998 24.448 -47.0258 2.44 -4.0278 5.674 -7.5166 9.506 -10.254 8.656 -5.512 17.752 -2.062 20.374 9.11 1.016 4.336 0.976 9.304 1.382 19.672h-36.478c-0.188 0.0036 -0.368 0.0798 -0.5 0.213 -0.134 0.1332 -0.21 0.3126 -0.214 0.501 -0.182 7.2298 -0.2 14.4738 0.154 21.6998 0.068 6.412 1.212 12.768 3.388 18.8 2.024 5.34 5.282 10.124 9.51 13.96 4.228 3.838 9.304 6.618 14.814 8.116 -10.024 9.492 -25.518 13.17 -37.634 6.492 0.042 0.558 0.076 1.116 0.094 1.676 11.214 5.8 27.738 3.746 39.24 -7.822 1.982 0.338 3.99 0.502 6 0.492 5.028 0.13 10.03 -0.772 14.698 -2.646 4.67 -1.874 8.904 -4.684 12.448 -8.254 4.898 -4.958 8.526 -10.55 11.4 -22.016 1.916 -7.864 2.85 -15.936 2.776 -24.03 4.152 -2.806 7.74 -6.367 10.576 -10.4978 1.746 -2.9328 2.378 -6.3958 1.78 -9.756 -0.06 -0.4586 -0.174 -0.9084 -0.34 -1.34 0.082 -0.2742 0.136 -0.5554 0.162 -0.84 0.17 -1.1756 0.028 -2.3754 -0.414 -3.478 0.904 -2.01 1.496 -4.1458 1.758 -6.334 -0.006 -0.6562 -0.168 -1.3016 -0.472 -1.8832 -0.304 -0.5814 -0.742 -1.082 -1.278 -1.4608Zm-20.6 -1.412c0.564 -0.6754 1.258 -1.2298 2.042 -1.6308 0.782 -0.4008 1.638 -0.6396 2.516 -0.7022 0.878 -0.0624 1.758 0.0526 2.59 0.3382 0.832 0.2858 1.598 0.7362 2.252 1.3248l5.092 4.036c-4.312 4.016 -7.25 9.42 -12.338 12.652 -3.144 1.8064 -6.49 3.2344 -9.97 4.254 -0.964 -2.3294 -2.38 -4.4446 -4.166 -6.224 1.176 -1.396 11.332 -13.308 11.98 -14.054l0.002 0.006Zm20.4 7.4c-0.936 3.244 -1.264 3.182 -1.24 3.672 0.368 0.9976 0.528 2.06 0.472 3.122 -0.104 0.4076 -0.188 0.821 -0.246 1.238 0.658 2.1098 0.76 4.3542 0.292 6.5146 -0.466 2.1604 -1.484 4.1632 -2.954 5.8134 -2.574 3.2114 -5.62 6.0138 -9.034 8.3138 -0.504 0.446 -0.124 0.546 -0.4 6.4 -0.512 10.784 -3.172 25.6 -9.282 34.318 -3.83 5.614 -9.152 10.046 -15.364 12.8 -6.898 2.8 -14.446 3.606 -21.78 2.328 -7.712 -1.858 -14.518 -6.382 -19.216 -12.774 -7.246 -9.696 -7.884 -19.482 -8.244 -30.05 -0.2 -6.032 -0.174 -11.938 -0.038 -17.8378h35.504c2.146 13.3878 4.742 19.5598 5.988 29.2678 0.094 0.73 1.212 1.054 1.4 0.2 1.948 -8.694 3.8 -17.42 6.156 -26.012 2 -7.2518 2.286 -6.9998 2.042 -7.6658 -0.188 -0.5 0.06 0.122 -2.51 -4.924 -1.216 -1.9362 -2.016 -4.103 -2.354 -6.364 -0.088 -1.632 0.614 -3.668 2.574 -3.564 2.14 0.5574 4.044 1.787 5.434 3.508 3.658 3.946 3.12 6.6 4.38 6.164 6.94 -2.4 11.158 -3.662 16.2 -9.154 2.902 -3.162 7.07 -8.91 9.736 -10.2 0.288 -0.125 0.6 -0.1838 0.914 -0.1724 0.312 0.0114 0.62 0.0926 0.898 0.238 0.278 0.1454 0.518 0.351 0.706 0.602 0.188 0.251 0.318 0.5408 0.38 0.8484 0.17 1.1354 0.024 2.2958 -0.422 3.354l0.008 0.016Z" stroke-width="1"></path><path id="vector_80" fill="#000000" d="M300.566 186.632c-0.492 2.6246 -0.81 5.2792 -0.948 7.946 -0.046 0.918 1.384 0.916 1.43 0 0.13 -2.5392 0.43 -5.0668 0.898 -7.566 0.168 -0.9 -1.21 -1.286 -1.38 -0.38Z" stroke-width="1"></path><path id="vector_81" fill="#000000" d="M381.372 182.892c-1.518 4.174 -3.682 5.728 -6.786 8.552 -0.682 0.622 0.332 1.63 1.012 1.012 3.112 -2.834 5.456 -4.516 7.152 -9.184 0.316 -0.872 -1.066 -1.24 -1.378 -0.38Z" stroke-width="1"></path><path id="vector_82" fill="#000000" d="M378.216 195.088c-0.726 0.546 -0.014 1.788 0.722 1.234 2.6 -1.95 6.264 -5.468 7.054 -8.616 0.038 -0.1784 0.006 -0.3648 -0.088 -0.5206 -0.096 -0.156 -0.246 -0.2698 -0.422 -0.3184 -0.176 -0.0484 -0.364 -0.028 -0.526 0.0574 -0.16 0.0852 -0.284 0.229 -0.342 0.4016 -0.698 2.776 -4.25 6.144 -6.398 7.762Z" stroke-width="1"></path><path id="vector_83" fill="#000000" d="m345.684 252.498 -8.698 0.26c-0.918 0.028 -0.922 1.458 0 1.43l8.698 -0.26c0.916 -0.028 0.916 -1.458 0 -1.43Z" stroke-width="1"></path><path id="vector_84" fill="#000000" d="M363.496 143.036V110.862c-0.01 -0.183 -0.09 -0.3554 -0.222 -0.4816 -0.134 -0.1262 -0.31 -0.1966 -0.492 -0.1966 -0.184 0 -0.36 0.0704 -0.494 0.1966 -0.132 0.1262 -0.212 0.2986 -0.222 0.4816v32.174c0.01 0.183 0.09 0.3556 0.222 0.4816 0.134 0.1262 0.31 0.1966 0.494 0.1966 0.182 0 0.358 -0.0704 0.492 -0.1966 0.132 -0.126 0.212 -0.2986 0.222 -0.4816Z" stroke-width="1"></path><path id="vector_85" fill="#000000" d="M355.068 145.572c0.474 0.612 1.7 -0.12 1 -1.012l-10.212 -13.2c-0.474 -0.612 -1.702 0.118 -1.012 1.012l10.224 13.2Z" stroke-width="1"></path><path id="vector_86" fill="#000000" d="m370.4 145.482 10.4 -14.856c0.53 -0.756 -0.71 -1.47 -1.234 -0.722l-10.4 14.856c-0.532 0.756 0.708 1.47 1.234 0.722Z" stroke-width="1"></path><path id="vector_87" fill="#000000" d="M149.496 188.564c0.528 -3.832 -3.252 -6.74 -6.506 -7.77 -3.8172 -0.9074 -7.8108 -0.7454 -11.542 0.468 0.312 -4.72 1.574 -13.87 -2.132 -16.722 -0.5518 -0.418 -1.2048 -0.6818 -1.8922 -0.7648 -0.6874 -0.083 -1.3844 0.0182 -2.0198 0.2928 -3.11 1.306 -3.68 5.2 -3.63 8.166 0.4112 3.2516 -0.2094 6.5502 -1.774 9.43 -3.306 6.256 -8.97 10.102 -16.172 27.136 -2.984 7.056 -5.362 14.316 -7.686 21.6 -4.686 -8.226 -10.1798 -15.964 -16.4 -23.102 -3.0462 -3.572 -6.9524 -6.308 -11.35 -7.952 1.7234 -6.19 1.9666 -12.6986 0.71 -19 -1.232 -5.038 -4.178 -10.44 -9.106 -12.044 -5.548 -1.8 -13.838 1.668 -16.936 9.898 -2.452 6.51 -1.698 14.46 -7.914 19.286 -3.586 2.782 -6.57 2.38 -9.656 4.166 -1.504 0.862 -2.6564 2.226 -3.2546 3.852 -0.5984 1.628 -0.6046 3.414 -0.0174 5.044 0.514 1.664 1.272 3.614 -0.468 4.82 -1.6094 0.774 -3.35368 1.228 -5.13598 1.336 -0.84824 0.134 -1.64928 0.478 -2.32916 1.002 -0.67988 0.524 -1.21668 1.212 -1.56084 1.998 -0.1809 0.7 -0.16452 1.434 0.04732 2.124 0.21184 0.69 0.61082 1.308 1.15268 1.786 0.718 0.8 2.038 1.8 1.8 3.036 -0.24 1.2 -2.042 2.064 -3.378 3.374 -5.05 4.96 -1.28 10.746 5.688 12.188 -1.01276 5.802 -1.09176 11.728 -0.234 17.554 1.3367 9.116 6.03718 17.4 13.17598 23.224 20.342 17.2 49.6 11.762 65.108 -8.532 5.0424 0.47 10.1282 -0.028 14.984 -1.466 10.304 -3.45 17.02 -11.426 21.416 -21.222 6.8108 -15.406 8.736 -32.528 5.516 -49.062 1.2748 0.778 2.4688 1.68 3.564 2.694 3.706 2.462 8.716 -0.776 6.888 -6.15 -1.0958 -2.8984 -3.1354 -5.3436 -5.79 -6.942 4.05 0.35 6.416 -1.634 6.834 -3.746ZM13.89602 230.51c1.06146 -0.712 2.00602 -1.586 2.8 -2.588 0.28328 -0.464 0.43844 -0.996 0.44968 -1.54 0.01124 -0.544 -0.12184 -1.08 -0.38568 -1.556 -0.8 -1.528 -3.728 -3.138 -2.482 -5.126 1.4 -2.252 5.016 -1.492 7.59998 -2.77 0.5628 -0.254 1.0626 -0.63 1.4634 -1.1 0.4006 -0.47 0.6926 -1.022 0.8546 -1.618 0.1436 -1.49 -0.0968 -2.99 -0.698 -4.36 -0.395 -1.252 -0.368 -2.598 0.0772 -3.834 0.4452 -1.234 1.2838 -2.288 2.3868 -3 2.366 -1.484 5.304 -1.69 7.78 -2.968 8.964 -4.626 8.076 -14.25 10.59 -21.216 0.8606 -2.597 2.4626 -4.8854 4.6086 -6.5824 2.146 -1.6972 4.742 -2.7288 7.4674 -2.9676 3.4 -0.19 6.942 1.54 9.468 6.43 3.66 7.09 2.972 15.472 1.154 23.164 -4.547 -1.3072 -9.346 -1.474 -13.9728 -0.4858 -4.6268 0.9882 -8.939 3.1018 -12.5552 6.1518 -5.1752 4.292 -9.6902 9.322 -13.4 14.93 -4.3166 6.45 -7.30782 13.692 -8.79998 21.308 -5.878 -1.256 -9.536 -5.832 -4.406 -10.272ZM80.034 286.286c-25.984 14.122 -53.6 -0.848 -59.756 -21.738 -1.0466 -3.734 -1.596 -7.59 -1.63398 -11.468 -0.2205 -14.52 5.01278 -28.596 14.66598 -39.446 5.182 -6.03 11.26 -11.51 19.108 -13.614 5.2644 -1.4096 10.8394 -1.1198 15.9292 0.828 5.0896 1.948 9.4334 5.456 12.4108 10.02 -1.2 7.888 -4.482 14.51 -11.772 17.982 -4.462 2.126 -12.51 2.516 -17.432 2.4 -0.1096 0.002 -0.2176 0.028 -0.3154 0.078 -0.098 0.05 -0.1834 0.12 -0.2498 0.208 -0.0664 0.086 -0.1122 0.188 -0.1338 0.296 -0.0216 0.106 -0.0186 0.218 0.009 0.324 0.4626 2.322 1.08 4.61 1.848 6.85 6.506 19.292 20.678 33.33 41.662 35.298 -3.9326 4.91 -8.8084 8.984 -14.34 11.982Zm57.848 -96c-0.168 0.0076 -0.328 0.0738 -0.452 0.1874 -0.1242 0.1134 -0.2046 0.2668 -0.2272 0.4334 -0.0226 0.1666 0.014 0.3358 0.1034 0.4782 0.0894 0.1424 0.226 0.249 0.3858 0.301 1.896 0.45 3.6742 1.2996 5.2156 2.492 1.5414 1.1924 2.8104 2.7 3.7224 4.422 2.48 4.904 -1.566 7.8 -4.842 5.2 -1.464 -1.158 -2.732 -2.662 -4.732 -2.762 -0.1096 0.002 -0.2174 0.028 -0.3152 0.076 -0.098 0.05 -0.1834 0.12 -0.2496 0.208 -0.0664 0.088 -0.112 0.188 -0.1334 0.296 -0.0212 0.108 -0.0178 0.218 0.0102 0.324 5.692 24.104 -2.958 51.422 -13.876 62.306 -4.6492 4.68 -10.7084 7.702 -17.244 8.6 -5.6966 0.596 -11.4518 0.274 -17.046 -0.956 -4.589 -1.032 -8.9796 -2.802 -13 -5.244 -12.032 -7.358 -19.972 -21.064 -22.762 -33.964 4.762 0.052 12.118 -0.388 16.516 -2.264 6.4 -2.732 11.488 -8.78 13.044 -18.284 5.0172 6.464 9.605 13.252 13.734 20.316 0.0734 0.118 0.1792 0.212 0.3048 0.272 0.1254 0.058 0.2652 0.08 0.4028 0.062 0.1376 -0.018 0.2672 -0.074 0.3732 -0.164 0.1062 -0.09 0.1844 -0.208 0.2252 -0.34 4.2 -13.178 8.484 -26.586 16.114 -38.254 3.954 -6.048 8.876 -10.688 9.892 -16.698 0.498 -2.954 -0.35 -6.086 0.574 -8.966 1.184 -3.696 4.292 -4.086 5.678 -1.686 2.036 3.528 0.934 10.256 0.664 15.508 0.0012 0.1098 0.0276 0.218 0.0768 0.316 0.0494 0.0982 0.1204 0.1838 0.2078 0.2502 0.0872 0.0666 0.1886 0.1124 0.2964 0.1338 0.1076 0.0214 0.2188 0.018 0.325 -0.01 3.5542 -1.2124 7.354 -1.523 11.058 -0.904 1.467 0.3448 2.8354 1.0216 4 1.978 0.6742 0.4818 1.225 1.1162 1.6072 1.8512 0.3824 0.7352 0.5856 1.5502 0.5928 2.3788 -0.2398 0.7648 -0.7122 1.4358 -1.3514 1.9194 -0.6392 0.4836 -1.4134 0.7558 -2.2146 0.7786 -2.2376 -0.035 -4.4696 -0.2344 -6.678 -0.596v0.004Z" stroke-width="1"></path><path id="vector_88" fill="#000000" d="m102.818 268 6.708 -1.654c0.1728 -0.058 0.3164 -0.182 0.4016 -0.342 0.0854 -0.162 0.1058 -0.35 0.0574 -0.526 -0.0486 -0.176 -0.1624 -0.326 -0.3184 -0.422 -0.1558 -0.094 -0.342 -0.126 -0.5206 -0.088l-6.71 1.654c-0.892 0.22 -0.514 1.598 0.382 1.378Z" stroke-width="1"></path><path id="vector_89" fill="#000000" d="M56.25 176.968c-1.0002 0.6764 -1.7614 1.6514 -2.1748 2.786 -0.4134 1.1346 -0.4578 2.3706 -0.1272 3.532 1.316 4.948 8.15 7.318 9.968 1.356 1.484 -4.864 -3.97 -9.694 -7.666 -7.674Zm6.288 7.294c-1.248 4.092 -5.654 2.57 -7 -0.746 -1.38 -3.372 1.414 -7.494 5.086 -4.638 0.8224 0.6018 1.4448 1.437 1.7862 2.3972 0.3414 0.9602 0.3858 2.001 0.1278 2.9868Z" stroke-width="1"></path><path id="vector_90" fill="#000000" d="M121.618 191.8c1.3582 -2.3128 3.1928 -4.3102 5.382 -5.86 0.746 -0.526 0.032 -1.766 -0.722 -1.234 -2.3944 1.6828 -4.4036 3.8554 -5.894 6.374 -0.0806 0.1626 -0.0964 0.3498 -0.0444 0.5236 0.0522 0.1738 0.1684 0.3214 0.325 0.4128 0.1568 0.0916 0.3424 0.12 0.5194 0.0798 0.177 -0.04 0.332 -0.146 0.434 -0.2962Z" stroke-width="1"></path><path id="vector_91" fill="#000000" d="M127.696 195.33c0.8836 -0.995 1.98 -1.7778 3.2078 -2.2906 1.2278 -0.5128 2.5554 -0.7424 3.8842 -0.6714 0.92 0.048 0.918 -1.382 0 -1.43 -1.5166 -0.0734 -3.0306 0.1918 -4.432 0.7766 -1.4014 0.5846 -2.6552 1.4738 -3.67 2.6034 -0.61 0.682 0.398 1.7 1.01 1.012Z" stroke-width="1"></path><path id="vector_92" fill="#000000" d="M52.18 228.932c-0.5832 -3.176 -0.7728 -6.414 -0.564 -9.636 0.058 -0.92 -1.372 -0.916 -1.43 0 -0.2074 3.352 -0.0006 6.716 0.616 10.016 0.166 0.904 1.546 0.52 1.378 -0.38Z" stroke-width="1"></path><path id="vector_93" fill="#000000" d="M28.174 183.852c-0.044 0.181 -0.0158 0.3718 0.0786 0.5324 0.0942 0.1604 0.2474 0.2778 0.427 0.3274 0.1796 0.0494 0.3712 0.027 0.5344 -0.0626 0.1634 -0.0896 0.2852 -0.2392 0.34 -0.4172 2.558 -9.76 11.8 -17.614 19.252 -19.29 0.896 -0.2 0.516 -1.58 -0.38 -1.38 -7.994 1.796 -17.638 10.316 -20.252 20.29Z" stroke-width="1"></path><path id="vector_94" fill="#000000" d="M44.16 159.6218c-10.6 4.89 -18.346 11.348 -20.6 23.42 -0.168 0.9 1.21 1.284 1.38 0.38 2.168 -11.644 9.506 -17.758 19.936 -22.564 0.84 -0.386 0.124 -1.618 -0.716 -1.236Z" stroke-width="1"></path><path id="vector_95" fill="#000000" d="M156.444 205.78c-0.676 -0.624 -1.69 0.386 -1.012 1.012l11.052 10.2c0.674 0.624 1.688 -0.386 1 -1.012l-11.04 -10.2Z" stroke-width="1"></path><path id="vector_96" fill="#000000" d="M174.62 212.214c0.826 0.4 1.554 -0.842 0.722 -1.236l-17.186 -8.124c-0.828 -0.4 -1.554 0.842 -0.722 1.236l17.186 8.124Z" stroke-width="1"></path><path id="vector_97" fill="#000000" d="M105.058 97.8602c0.1886 -0.0026 0.3686 -0.0788 0.502 -0.212 0.1334 -0.1334 0.2094 -0.3136 0.212 -0.502 0 -11.8 0.038 -15.522 -0.014 -16.756 -0.026 -0.634 -0.046 -0.884 -0.9 -0.92 -1.364 -0.06 -5.918 -0.012 -21.908 -0.012 -0.189 0.003 -0.3692 0.0794 -0.5028 0.213 -0.1336 0.1336 -0.2102 0.314 -0.2132 0.503v16.972c0.0032 0.1886 0.0796 0.3688 0.2132 0.502 0.1338 0.1334 0.314 0.2094 0.5028 0.212h22.108Zm-21.4 -16.972h20.684v15.542H83.664l-0.006 -15.542Z" stroke-width="1"></path><path id="vector_98" fill="#000000" d="M305.27 80.174c-0.002 -0.1888 -0.078 -0.369 -0.212 -0.5028 -0.134 -0.1336 -0.314 -0.2102 -0.502 -0.2132 -164.312 0 -190.164 -0.078 -194.368 0.078 -0.85 0.03 -1.034 -0.01 -1.074 0.776 -0.056 1.112 -0.01 4.652 -0.01 16.834 0.0032 0.1888 0.0796 0.3688 0.2132 0.5022 0.1338 0.1332 0.314 0.2092 0.5028 0.2118h194.736c0.188 -0.0026 0.368 -0.0786 0.502 -0.212s0.21 -0.3134 0.212 -0.502v-16.972Zm-1.43 16.256c-1.51 0 -192.57 -0.038 -193.306 0v-15.542c1.51 0 192.57 0.038 193.306 0v15.542Z" stroke-width="1"></path><path id="vector_99" fill="#000000" d="M82.234 127.4c0.0032 0.1886 0.0796 0.3688 0.2132 0.502 0.1338 0.1334 0.314 0.2094 0.5028 0.212 23.834 0 22.26 0.108 22.612 -0.212 0.31 -0.412 0.21 1.43 0.21 -18.704 -0.002 -0.189 -0.0778 -0.3696 -0.2112 -0.5034 -0.1334 -0.1338 -0.3138 -0.21 -0.5028 -0.2126H82.95c-0.189 0.003 -0.3692 0.0794 -0.5028 0.213 -0.1336 0.1336 -0.2102 0.314 -0.2132 0.503V127.4Zm1.43 -17.488h20.678v16.768H83.664v-16.768Z" stroke-width="1"></path><path id="vector_100" fill="#000000" d="M82.234 148.502c0.0032 0.1888 0.0796 0.3688 0.2132 0.5022 0.1338 0.1332 0.314 0.2092 0.5028 0.2118 23.834 0 22.262 0.108 22.612 -0.212 0.31 -0.412 0.21 1.43 0.21 -18.706 -0.0026 -0.1886 -0.0786 -0.3686 -0.212 -0.502 -0.1334 -0.1334 -0.3134 -0.2094 -0.502 -0.212H82.95c-0.1888 0.0026 -0.369 0.0786 -0.5028 0.2118 -0.1336 0.1334 -0.21 0.3134 -0.2132 0.5022v18.204Zm1.43 -17.488h20.678v16.772H83.664v-16.772Z" stroke-width="1"></path><path id="vector_101" fill="#000000" d="M82.234 169.342c0.0032 0.1888 0.0796 0.369 0.2132 0.5022 0.1338 0.1334 0.314 0.2094 0.5028 0.2118 23.834 0 22.262 0.108 22.612 -0.212 0.31 -0.412 0.21 1.43 0.21 -18.706 -0.0026 -0.1884 -0.0786 -0.3686 -0.212 -0.502 -0.1334 -0.1332 -0.3134 -0.2094 -0.502 -0.212H82.95c-0.1888 0.0026 -0.369 0.0786 -0.5028 0.212 -0.1336 0.1332 -0.21 0.3134 -0.2132 0.502v18.204Zm1.43 -17.488h20.678v16.772H83.664v-16.772Z" stroke-width="1"></path><path id="vector_102" fill="#000000" d="M82.234 190.18c0.0026 0.1892 0.0788 0.3698 0.2126 0.5036 0.1336 0.1336 0.3144 0.21 0.5034 0.2126h22.108c0.1884 -0.0042 0.368 -0.081 0.501 -0.2144 0.1332 -0.1336 0.2094 -0.3132 0.213 -0.5018v-18.1998c-0.0026 -0.1886 -0.0786 -0.3688 -0.212 -0.5022 -0.1334 -0.1332 -0.3134 -0.2092 -0.502 -0.2118H82.95c-0.1888 0.0024 -0.369 0.0784 -0.5028 0.2118 -0.1336 0.1332 -0.21 0.3134 -0.2132 0.5022V190.18Zm1.43 -17.4878h20.678v16.774H83.664v-16.774Z" stroke-width="1"></path><path id="vector_103" fill="#000000" d="M114.61 189.466c-0.984 0 -3.696 -0.02 -4.076 -0.022 0 -2.462 0.066 -78.678 0.034 -79.536 1.238 0 41.962 0.048 43.574 0 0 2.466 -0.066 78.694 -0.034 79.55h-4.926c-0.2666 0.5502 -0.647 1.0376 -1.116 1.43 0 0 4.89 0.08 6.71 0 0.1004 0.0096 0.2018 -0.0016 0.2976 -0.033 0.0958 -0.0314 0.1842 -0.0824 0.2594 -0.1496 0.0752 -0.0674 0.1356 -0.1494 0.1774 -0.2412 0.0418 -0.0918 0.0642 -0.1914 0.0656 -0.2922 0 -86.53 0.114 -81.132 -0.214 -81.49 -0.43 -0.326 3.214 -0.212 -45.538 -0.212 -0.189 0.0026 -0.3696 0.0788 -0.5034 0.2126 -0.1338 0.1336 -0.21 0.3142 -0.2126 0.5034V190.18c0.0026 0.189 0.0788 0.3696 0.2126 0.5034 0.1338 0.1338 0.3144 0.21 0.5034 0.2126h3.756c0.62 -0.884 0.172 -0.28 1.03 -1.43Z" stroke-width="1"></path><path id="vector_104" fill="#000000" d="M204.41 164.914c0.188 -0.0026 0.37 -0.0786 0.502 -0.212 0.134 -0.1332 0.21 -0.3134 0.214 -0.502 0 -58.984 0.118 -55.152 -0.212 -55.51 -0.436 -0.328 3.028 -0.212 -45.54 -0.212 -0.189 0.0026 -0.3696 0.0788 -0.5034 0.2124 -0.1338 0.1338 -0.21 0.3144 -0.2126 0.5036V164.2c0.0032 0.1886 0.0796 0.3688 0.2132 0.502 0.1338 0.1334 0.314 0.2094 0.5028 0.212h45.036Zm-44.322 -1.452c0 -1.584 0.026 -53.046 0.02 -53.554 1.244 0 41.976 0.048 43.588 0 0 1.588 -0.026 53.06 -0.02 53.568 -40.376 0.008 -39.432 0.016 -43.588 -0.014Z" stroke-width="1"></path><path id="vector_105" fill="#000000" d="M304.556 146.446c0.188 -0.0026 0.368 -0.0786 0.502 -0.212 0.134 -0.1332 0.21 -0.3134 0.212 -0.502 0 -39.094 0.116 -36.68 -0.212 -37.042 -0.434 -0.326 3.212 -0.212 -45.54 -0.212 -0.188 0.0032 -0.37 0.0796 -0.502 0.2132 -0.134 0.1336 -0.21 0.314 -0.214 0.5028v36.538c0.004 0.1888 0.08 0.369 0.214 0.5022 0.132 0.1332 0.314 0.2092 0.502 0.2118h45.038Zm-44.324 -1.446V109.908c1.25 0 42 0.048 43.6 0v35.1c-55.708 0.008 -39.536 0.018 -43.6 -0.008Z" stroke-width="1"></path><path id="vector_106" fill="#000000" d="M147.584 120.35H116.2c-0.183 0.0098 -0.3554 0.0894 -0.4816 0.2224 -0.1262 0.133 -0.1966 0.3094 -0.1966 0.4928 0 0.1832 0.0704 0.3596 0.1966 0.4926 0.1262 0.133 0.2986 0.2126 0.4816 0.2222h31.4c0.1832 -0.0114 0.3548 -0.0928 0.4798 -0.2272 0.1248 -0.1346 0.1932 -0.3118 0.1912 -0.4952 -0.002 -0.1836 -0.0744 -0.3592 -0.2022 -0.491 -0.128 -0.1316 -0.3014 -0.209 -0.4848 -0.2166Z" stroke-width="1"></path><path id="vector_107" fill="#000000" d="M147.584 126.68H116.2c-0.183 0.0096 -0.3554 0.0892 -0.4816 0.2222 -0.1262 0.133 -0.1966 0.3094 -0.1966 0.4928 0 0.1832 0.0704 0.3596 0.1966 0.4926 0.1262 0.133 0.2986 0.2126 0.4816 0.2224h31.4c0.1832 -0.0116 0.3548 -0.093 0.4798 -0.2274 0.1248 -0.1346 0.1932 -0.3118 0.1912 -0.4952 -0.002 -0.1836 -0.0744 -0.3592 -0.2022 -0.4908 -0.128 -0.1318 -0.3014 -0.2092 -0.4848 -0.2166Z" stroke-width="1"></path><path id="vector_108" fill="#000000" d="M147.584 133.012H116.2c-0.183 0.0096 -0.3554 0.0892 -0.4816 0.2222 -0.1262 0.133 -0.1966 0.3094 -0.1966 0.4928s0.0704 0.3596 0.1966 0.4926c0.1262 0.1332 0.2986 0.2126 0.4816 0.2224h31.4c0.1832 -0.0116 0.3548 -0.093 0.4798 -0.2274 0.1248 -0.1344 0.1932 -0.3118 0.1912 -0.4952 -0.002 -0.1836 -0.0744 -0.3592 -0.2022 -0.4908 -0.128 -0.1316 -0.3014 -0.2092 -0.4848 -0.2166Z" stroke-width="1"></path><path id="vector_109" fill="#000000" d="M166.346 121.78h31.4c0.1832 -0.0096 0.3556 -0.0892 0.4816 -0.2222 0.1262 -0.133 0.1966 -0.3094 0.1966 -0.4926 0 -0.1834 -0.0704 -0.3598 -0.1966 -0.4928 -0.126 -0.133 -0.2984 -0.2126 -0.4816 -0.2224h-31.4c-0.183 0.0098 -0.3554 0.0894 -0.4816 0.2224 -0.1262 0.133 -0.1966 0.3094 -0.1966 0.4928 0 0.1832 0.0704 0.3596 0.1966 0.4926 0.1262 0.133 0.2986 0.2126 0.4816 0.2222Z" stroke-width="1"></path><path id="vector_110" fill="#000000" d="M166.346 128.11h31.4c0.1832 -0.0098 0.3556 -0.0894 0.4816 -0.2224 0.1262 -0.133 0.1966 -0.3094 0.1966 -0.4926 0 -0.1834 -0.0704 -0.3598 -0.1966 -0.4928 -0.126 -0.133 -0.2984 -0.2126 -0.4816 -0.2222h-31.4c-0.183 0.0096 -0.3554 0.0892 -0.4816 0.2222 -0.1262 0.133 -0.1966 0.3094 -0.1966 0.4928 0 0.1832 0.0704 0.3596 0.1966 0.4926 0.1262 0.133 0.2986 0.2126 0.4816 0.2224Z" stroke-width="1"></path><path id="vector_111" fill="#000000" d="M166.346 134.442h31.4c0.1832 -0.0098 0.3556 -0.0892 0.4816 -0.2224 0.1262 -0.133 0.1966 -0.3092 0.1966 -0.4926s-0.0704 -0.3598 -0.1966 -0.4928c-0.126 -0.133 -0.2984 -0.2126 -0.4816 -0.2222h-31.4c-0.183 0.0096 -0.3554 0.0892 -0.4816 0.2222 -0.1262 0.133 -0.1966 0.3094 -0.1966 0.4928s0.0704 0.3596 0.1966 0.4926c0.1262 0.1332 0.2986 0.2126 0.4816 0.2224Z" stroke-width="1"></path><path id="vector_112" fill="#000000" d="M166.346 140.116h31.4c0.1832 -0.0096 0.3556 -0.0892 0.4816 -0.2222 0.1262 -0.133 0.1966 -0.3094 0.1966 -0.4928s-0.0704 -0.3596 -0.1966 -0.4928c-0.126 -0.133 -0.2984 -0.2124 -0.4816 -0.2222h-31.4c-0.183 0.0098 -0.3554 0.0892 -0.4816 0.2222 -0.1262 0.1332 -0.1966 0.3094 -0.1966 0.4928s0.0704 0.3598 0.1966 0.4928c0.1262 0.133 0.2986 0.2126 0.4816 0.2222Z" stroke-width="1"></path><path id="vector_113" fill="#000000" d="M197.74 146.4462c0.1832 -0.0098 0.3556 -0.0894 0.4816 -0.2224 0.1262 -0.133 0.1966 -0.3094 0.1966 -0.4926 0 -0.1834 -0.0704 -0.3598 -0.1966 -0.4928 -0.126 -0.133 -0.2984 -0.2126 -0.4816 -0.2222h-31.4c-0.183 0.0096 -0.3554 0.0892 -0.4816 0.2222 -0.1262 0.133 -0.1966 0.3094 -0.1966 0.4928 0 0.1832 0.0704 0.3596 0.1966 0.4926 0.1262 0.133 0.2986 0.2126 0.4816 0.2224h31.4Z" stroke-width="1"></path><path id="vector_114" fill="#000000" d="m283.076 135.024 14.246 -14.246c0.114 -0.1364 0.172 -0.3102 0.164 -0.4874 -0.008 -0.1772 -0.08 -0.3452 -0.206 -0.4712 -0.124 -0.1262 -0.292 -0.2012 -0.468 -0.2108 -0.178 -0.0094 -0.352 0.0474 -0.49 0.1594l-13.742 13.74 -9.518 -9.52c-0.136 -0.1268 -0.316 -0.1958 -0.502 -0.1928 -0.184 0.0032 -0.362 0.0784 -0.494 0.2096 -0.13 0.1314 -0.206 0.3086 -0.208 0.4942 -0.004 0.1858 0.066 0.3654 0.192 0.501l10.026 10.024c0.134 0.1286 0.314 0.2004 0.5 0.2004s0.366 -0.0718 0.5 -0.2004Z" stroke-width="1"></path><path id="vector_115" fill="#000000" d="M298.884 85.658h-14.114c-0.184 0.0096 -0.356 0.0892 -0.482 0.2222s-0.196 0.3094 -0.196 0.4928 0.07 0.3596 0.196 0.4926c0.126 0.1332 0.298 0.2126 0.482 0.2224h14.114c0.184 -0.0098 0.356 -0.0892 0.482 -0.2224 0.126 -0.133 0.196 -0.3092 0.196 -0.4926s-0.07 -0.3598 -0.196 -0.4928 -0.298 -0.2126 -0.482 -0.2222Z" stroke-width="1"></path><path id="vector_116" fill="#000000" d="M298.884 89.924h-14.114c-0.184 0.0098 -0.356 0.0894 -0.482 0.2224s-0.196 0.3094 -0.196 0.4926c0 0.1834 0.07 0.3598 0.196 0.4928s0.298 0.2126 0.482 0.2222h14.114c0.184 -0.0096 0.356 -0.0892 0.482 -0.2222s0.196 -0.3094 0.196 -0.4928c0 -0.1832 -0.07 -0.3596 -0.196 -0.4926s-0.298 -0.2126 -0.482 -0.2224Z" stroke-width="1"></path><path id="vector_117" fill="#000000" d="m90.314 121.306 5.8 -5.8c0.1038 -0.1374 0.1542 -0.3078 0.1422 -0.4796 -0.0118 -0.1718 -0.0856 -0.3334 -0.2074 -0.4552 -0.1216 -0.1218 -0.2834 -0.1954 -0.4552 -0.2074 -0.1718 -0.012 -0.3422 0.0386 -0.4796 0.1422l-5.8 5.8c-0.1038 0.1376 -0.1542 0.3078 -0.1422 0.4796 0.0118 0.172 0.0856 0.3336 0.2074 0.4554 0.1216 0.1218 0.2834 0.1954 0.4552 0.2074 0.1718 0.012 0.3422 -0.0386 0.4796 -0.1424Z" stroke-width="1"></path><path id="vector_118" fill="#000000" d="M87.892 138.868c1.782 -1.2296 3.8056 -2.0648 5.936 -2.45 2.2 -0.32 -0.774 2.542 -1.976 4.302 -1.23 1.8 -0.05 3.454 2 3.536 2.018 -0.1826 3.8932 -1.1188 5.252 -2.622 0.696 -0.6 -0.318 -1.612 -1 -1 -1.2 1.04 -3.4 2.854 -4.942 2.026 -1.916 -1.028 5.044 -4.836 2.346 -7.242 -0.3672 -0.2442 -0.7878 -0.396 -1.2262 -0.4426 -0.4384 -0.0468 -0.8816 0.0132 -1.2918 0.1746 -2.0656 0.482 -4.0292 1.3264 -5.8 2.494 -0.79 0.492 -0.07 1.732 0.702 1.224Z" stroke-width="1"></path><path id="vector_119" fill="#000000" d="m99.02 165.584 -4.902 -4.902 4.902 -4.904c0.1036 -0.1374 0.1542 -0.3078 0.1422 -0.4796 -0.0118 -0.1718 -0.0856 -0.3334 -0.2074 -0.4552 -0.1218 -0.1218 -0.2834 -0.1954 -0.4552 -0.2074 -0.1718 -0.012 -0.3422 0.0386 -0.4796 0.1422l-4.904 4.902 -5 -5c-0.137 -0.1102 -0.3098 -0.166 -0.4854 -0.157 -0.1754 0.0088 -0.3416 0.082 -0.4666 0.2056 -0.1252 0.1236 -0.2004 0.289 -0.2114 0.4644 -0.011 0.1754 0.0428 0.3488 0.1514 0.487l5 5 -4.904 4.904c-0.1268 0.1358 -0.196 0.3154 -0.1928 0.501 0.0032 0.1858 0.0782 0.363 0.2096 0.4942 0.1312 0.1314 0.3086 0.2066 0.4942 0.2096 0.1856 0.0032 0.3654 -0.066 0.501 -0.1928l4.902 -4.904 4.896 4.908c0.1348 0.134 0.3172 0.209 0.5072 0.2084 0.1898 -0.0006 0.3718 -0.0766 0.5058 -0.2114 0.134 -0.1346 0.2088 -0.317 0.2082 -0.507 -0.0004 -0.19 -0.0764 -0.372 -0.2112 -0.506Z" stroke-width="1"></path><path id="vector_120" fill="#000000" d="M92.678 185.728c0.0652 0.105 0.156 0.1916 0.264 0.2518 0.1078 0.06 0.2294 0.0916 0.353 0.0916 0.1236 0 0.245 -0.0316 0.353 -0.0916 0.108 -0.0602 0.1988 -0.1468 0.264 -0.2518l5.17 -7.818c0.508 -0.77 -0.73 -1.488 -1.236 -0.722l-4.584 6.936 -3 -4.072c-0.54 -0.734 -1.782 -0.022 -1.236 0.722l3.652 4.954Z" stroke-width="1"></path><path id="vector_121" fill="#000000" d="M88.83 89.5998v-2.576c-0.0096 -0.183 -0.0892 -0.3554 -0.2222 -0.4816 -0.133 -0.1262 -0.3094 -0.1964 -0.4928 -0.1964s-0.3596 0.0702 -0.4928 0.1964c-0.133 0.1262 -0.2124 0.2986 -0.2222 0.4816v2.576c0.0098 0.1832 0.0892 0.3556 0.2222 0.4818 0.1332 0.1262 0.3094 0.1964 0.4928 0.1964s0.3598 -0.0702 0.4928 -0.1964c0.133 -0.1262 0.2126 -0.2986 0.2222 -0.4818Z" stroke-width="1"></path><path id="vector_122" fill="#000000" d="M94.718 89.5998v-2.576c-0.0096 -0.183 -0.0892 -0.3554 -0.2222 -0.4816 -0.133 -0.1262 -0.3094 -0.1964 -0.4928 -0.1964s-0.3596 0.0702 -0.4928 0.1964c-0.133 0.1262 -0.2124 0.2986 -0.2222 0.4816v2.576c0.0098 0.1832 0.0892 0.3556 0.2222 0.4818 0.1332 0.1262 0.3094 0.1964 0.4928 0.1964s0.3598 -0.0702 0.4928 -0.1964c0.133 -0.1262 0.2126 -0.2986 0.2222 -0.4818Z" stroke-width="1"></path><path id="vector_123" fill="#000000" d="M100.298 89.5998v-2.576c-0.0096 -0.183 -0.0892 -0.3554 -0.2222 -0.4816 -0.133 -0.1262 -0.3094 -0.1964 -0.4928 -0.1964s-0.3596 0.0702 -0.4926 0.1964c-0.1332 0.1262 -0.2126 0.2986 -0.2224 0.4816v2.576c0.0098 0.1832 0.0892 0.3556 0.2224 0.4818 0.133 0.1262 0.3092 0.1964 0.4926 0.1964s0.3598 -0.0702 0.4928 -0.1964c0.133 -0.1262 0.2126 -0.2986 0.2222 -0.4818Z" stroke-width="1"></path><path id="vector_124" fill="#000000" d="M190.6 87.8H116.2c-0.183 0.0098 -0.3554 0.0892 -0.4816 0.2224 -0.1262 0.133 -0.1966 0.3092 -0.1966 0.4926s0.0704 0.3598 0.1966 0.4928c0.1262 0.133 0.2986 0.2126 0.4816 0.2222h74.4c0.1832 -0.0096 0.3556 -0.0892 0.4816 -0.2222 0.1262 -0.133 0.1966 -0.3094 0.1966 -0.4928s-0.0704 -0.3596 -0.1966 -0.4926c-0.126 -0.1332 -0.2984 -0.2126 -0.4816 -0.2224Z" stroke-width="1"></path><path id="vector_125" fill="#000000" d="m75.712 75.8 -9.932 -10.73c-0.626 -0.678 -1.636 0.336 -1.01 1.01l9.93 10.72c0.626 0.682 1.636 -0.332 1.012 -1Z" stroke-width="1"></path><path id="vector_126" fill="#000000" d="m312.446 78 11.916 -11.916c0.134 -0.134 0.21 -0.3156 0.21 -0.505s-0.076 -0.3712 -0.21 -0.505c-0.134 -0.134 -0.316 -0.2092 -0.506 -0.2092 -0.188 0 -0.37 0.0752 -0.504 0.2092l-11.916 11.916c-0.134 0.1338 -0.21 0.3156 -0.21 0.505s0.076 0.371 0.21 0.505c0.134 0.1338 0.316 0.209 0.504 0.209 0.19 0 0.372 -0.0752 0.506 -0.209Z" stroke-width="1"></path><path id="vector_127" fill="#000000" d="M207.286 254.8c-0.404 -0.262 -0.782 -0.564 -1.128 -0.898 -7.654 12.442 -4.73 31 -21.018 38.968 -7.656 3.746 -12.468 0.932 -18.664 1.84 -6.474 0.948 -13.3 6.3 -16.188 15.168l-43.46 -20.374c0.983 -2.446 2.4644 -4.658 4.35 -6.5 1.8858 -1.84 4.1342 -3.268 6.602 -4.192 6.016 -2.23 12.328 -0.122 18.496 -1.266 5.431 -1.032 10.3708 -3.826 14.056 -7.946 8 -9 6.69 -25.05 17.286 -30.51 9.346 -4.816 21.728 3.552 31.4 -1.946 12.84 -7.304 10.874 -27.436 10.874 -127.234h43.6c0 101.964 1.62 129.248 -11.338 136.326 0.166 0.456 0.33 0.912 0.484 1.372 10.16 -5.566 10.4 -21.644 11.218 -32.902 1.416 -19.526 1.066 -20.15 1.066 -105.51 -0.002 -0.1888 -0.078 -0.369 -0.212 -0.5028 -0.134 -0.1336 -0.314 -0.2102 -0.502 -0.2132h-45.036c-0.188 0.004 -0.368 0.0808 -0.502 0.2142 -0.134 0.1334 -0.21 0.3132 -0.214 0.5018 0 82.972 0.344 86.77 -1.026 103.14 -0.54 6.446 -0.842 13.618 -4.546 19.17 -10.644 15.96 -31.44 -6.564 -43.038 13.54 -3.11 5.4 -4.074 11.63 -6.582 17.272 -1.7316 4 -4.5376 7.444 -8.1066 9.948 -3.5692 2.502 -7.762 3.968 -12.1134 4.234 -3.492 0.172 -6.974 -0.474 -10.466 -0.2 -3.868 0.338 -7.5584 1.776 -10.6344 4.146 -3.0762 2.37 -5.4092 5.57 -6.7236 9.224 -0.0404 0.15 -0.03 0.31 0.0292 0.456 0.0592 0.144 0.1642 0.264 0.2988 0.344l44.8 21c0.095 0.054 0.2006 0.084 0.3092 0.09 0.1086 0.008 0.2172 -0.01 0.318 -0.05 0.101 -0.042 0.1912 -0.104 0.2644 -0.186 0.0732 -0.08 0.1274 -0.176 0.1584 -0.28 0.757 -2.786 2.0596 -5.396 3.8326 -7.676 1.7728 -2.28 3.9808 -4.184 6.4954 -5.604 6.636 -3.51 12.042 -0.64 18.49 -1.788 5.4526 -1.106 10.3502 -4.076 13.852 -8.4 8.068 -9.628 7.294 -23.22 13.218 -32.776Z" stroke-width="1"></path><path id="vector_128" fill="#000000" d="M217.144 185.36h30.778c0.184 -0.0098 0.356 -0.0894 0.482 -0.2224s0.196 -0.3094 0.196 -0.4926c0 -0.1834 -0.07 -0.3598 -0.196 -0.4928s-0.298 -0.2126 -0.482 -0.2222h-30.778c-0.184 0.0096 -0.356 0.0892 -0.482 0.2222s-0.196 0.3094 -0.196 0.4928c0 0.1832 0.07 0.3596 0.196 0.4926s0.298 0.2126 0.482 0.2224Z" stroke-width="1"></path><path id="vector_129" fill="#000000" d="M247.922 190.438h-30.69c-0.184 0.0096 -0.356 0.0892 -0.482 0.2222s-0.196 0.3094 -0.196 0.4928 0.07 0.3596 0.196 0.4928c0.126 0.133 0.298 0.2124 0.482 0.2222h30.69c0.184 -0.0098 0.356 -0.0892 0.482 -0.2222 0.126 -0.1332 0.196 -0.3094 0.196 -0.4928s-0.07 -0.3598 -0.196 -0.4928 -0.298 -0.2126 -0.482 -0.2222Z" stroke-width="1"></path><path id="vector_130" fill="#000000" d="M245.81 210.648H215.12c-0.184 0.01 -0.356 0.09 -0.482 0.222 -0.126 0.134 -0.196 0.31 -0.196 0.492 0 0.184 0.07 0.36 0.196 0.494 0.126 0.132 0.298 0.212 0.482 0.222h30.69c0.184 -0.01 0.356 -0.09 0.482 -0.222 0.126 -0.134 0.196 -0.31 0.196 -0.494 0 -0.182 -0.07 -0.358 -0.196 -0.492 -0.126 -0.132 -0.298 -0.212 -0.482 -0.222Z" stroke-width="1"></path><path id="vector_131" fill="#000000" d="m196.742 257.246 -28.084 -12.374c-0.834 -0.368 -1.564 0.864 -0.722 1.234l28.086 12.376c0.834 0.366 1.562 -0.864 0.72 -1.236Z" stroke-width="1"></path><path id="vector_132" fill="#000000" d="M272.662 209.494c-4.276 -7.19 -3.942 -10.616 -6.454 -12.722 -0.314 -0.3736 -0.748 -0.629 -1.226 -0.7246 -0.48 -0.0954 -0.976 -0.0252 -1.41 0.1992 -0.434 0.2244 -0.78 0.5896 -0.978 1.0358 -0.2 0.4462 -0.24 0.9468 -0.118 1.4196 0.498 3.776 4.282 6.888 6.158 8.786 1 1.014 1.972 2.062 3 3.044 0.566 0.534 1.598 -0.078 1.028 -1.038Zm-4.502 -4.462c-1.47 -1.306 -2.694 -2.864 -3.616 -4.6 -0.3 -0.622 -1.114 -2.184 -0.474 -2.8 0.494 -0.482 1.226 0.2 1.548 0.57 1.122 1.6194 1.966 3.414 2.498 5.31 1.36 3.35 1.738 3.148 0.044 1.52Z" stroke-width="1"></path><path id="vector_133" fill="#000000" d="m193.8 263.4 -28.084 -12.376c-0.836 -0.366 -1.564 0.864 -0.722 1.236l28.084 12.374c0.842 0.366 1.57 -0.858 0.722 -1.234Z" stroke-width="1"></path><path id="vector_134" fill="#000000" d="M183.854 284.224 156.066 271.2c-0.828 -0.388 -1.554 0.844 -0.72 1.234l27.786 13.032c0.828 0.382 1.556 -0.85 0.722 -1.242Z" stroke-width="1"></path><path id="vector_135" fill="#000000" d="m179.32 288.452 -27.786 -13.032c-0.828 -0.388 -1.556 0.844 -0.722 1.234l27.788 13.032c0.826 0.388 1.554 -0.844 0.72 -1.234Z" stroke-width="1"></path><path id="vector_136" fill="#000000" d="M289.184 261.704c-2.322 -8.86 -6.806 -17.004 -13.05 -23.704 -6.016 -6.714 -14.176 -11.134 -23.086 -12.506 -0.048 0.464 -0.11 0.926 -0.166 1.39 0.832 0.122 1.958 0.328 2.826 0.518 -1.052 0.394 -2.08 0.854 -3.074 1.378 -0.092 0.612 -0.2 1.222 -0.306 1.83 1.816 -1.058 3.74 -1.914 5.742 -2.554 1.022 0.284 2.024 0.632 3 1.044 2.064 0.854 4.046 1.892 5.922 3.104 -2.644 1.56 -8.56 4.862 -11.78 5.276 -1.516 0.244 -3.068 -0.052 -4.386 -0.838 -0.156 0.458 -0.324 0.914 -0.502 1.368 0.99 0.554 2.096 0.872 3.23 0.93 3.042 -0.068 6.014 -0.936 8.614 -2.516 2.118 -1 4.176 -2.14 6.186 -3.348 6.022 4.44 10.992 10.15 14.556 16.728 5.094 9.2 7.496 18.432 3.966 30.352 -4.15 14.018 -15.652 26.182 -30.112 29.276 4.8 -4.2 9 -8.932 14.51 -19.292 2.688 -5.054 5.53 -10.822 7.972 -16.066 0.092 -0.164 0.118 -0.358 0.07 -0.54 -0.048 -0.184 -0.164 -0.34 -0.326 -0.438 -31.662 -14.214 -28.584 -12.85 -28.812 -12.9 -0.148 -0.06 -0.314 -0.064 -0.466 -0.01 -0.15 0.054 -0.276 0.162 -0.352 0.304 -1.534 2.546 -2.902 5.188 -4.096 7.91 0.83 -12.658 -2.71 -25.216 -10.028 -35.578 -1.25 -1.992 -2.846 -3.742 -4.716 -5.168 -0.804 -0.654 -1.826 -0.978 -2.86 -0.906 -1.034 0.072 -2 0.534 -2.706 1.294 -1.706 2.066 -1.14 4.932 -0.438 7.286 0.36 1.202 0.822 2.372 1.378 3.498 -2.884 -2.558 -5.8 -5.384 -9.882 -4.558 -1.096 0.182 -2.102 0.72 -2.864 1.528s-1.238 1.844 -1.356 2.95c-0.03 1.248 0.19 2.488 0.648 3.65 0.458 1.16 1.144 2.218 2.016 3.11 0.454 0.484 0.53 0.334 -0.514 0.04 -2.214 -0.776 -4.63 -0.756 -6.83 0.056 -1.236 0.51 -2.25 1.444 -2.86 2.636 -2.016 4.36 5.138 8.574 9.8 9.892 -3.912 7.564 -7.124 15.468 -9.6 23.614 -2.252 -8.498 -1.546 -14.246 0.694 -22.71 -1.404 3.73 -2.56 7.548 -3.462 11.43 -0.12 4.758 0.59 9.5 2.096 14.016 -0.642 2.778 -0.96 5.622 -0.952 8.474 0.15 11.31 7.744 20.538 17.4 25.128 11.986 5.702 24.11 1.546 34.4 -6.852 22.11 -2.83 39.172 -27.57 34.556 -49.526Zm-40.4 52.016c-13.77 8.746 -26.938 6.748 -36.984 -3.4 -8.902 -9 -8.962 -19.058 -5.144 -30.978 2.422 -7.332 5.438 -14.452 9.02 -21.292 0.054 -0.094 0.084 -0.2 0.092 -0.31 0.006 -0.108 -0.01 -0.216 -0.052 -0.318 -0.04 -0.1 -0.104 -0.192 -0.184 -0.264 -0.082 -0.074 -0.178 -0.128 -0.282 -0.158 -2.342 -0.556 -4.56 -1.538 -6.546 -2.898 -1.814 -1.248 -4.186 -3.39 -3.136 -5.312 2.586 -4.752 10.62 -1.4 15.256 1.352 0.8 0.478 1.458 -0.708 0.722 -1.234 -2.838 -2.028 -7.622 -4.016 -8.304 -9 -0.5 -3.652 3.678 -6.23 8.774 -2.544 2.184 1.578 3.934 3.674 6.23 5.114 0.742 0.466 1.33 -0.528 0.866 -1.124 -1.298 -1.698 -2.302 -3.602 -2.97 -5.632 -0.63 -1.86 -1.472 -4.4 -0.444 -6.258 0.832 -1.504 2.522 -1.98 4.75 -0.088 1.608 1.486 3.008 3.184 4.162 5.044 7.542 11.2 11.25 25.476 8.536 38.662 -0.154 0.742 0.946 1.33 1.306 0.55 1.692 -4.076 3.638 -8.04 5.828 -11.872l27.388 12.296c-1.77 3.768 -3.626 7.49 -5.494 11.2 -6.038 12.038 -11.584 20.962 -23.392 28.464h0.002Z" stroke-width="1"></path><path id="vector_137" fill="#000000" d="M260.164 215.06c-1.546 4.65 3.948 9.024 8.4 7.85 5.32 -1.4 5.86 -9.342 1.906 -12.216 -3.656 -2.66 -9.04 0.556 -10.306 4.366Zm4.058 -2.852c4.44 -2.82 8.186 0.52 7.27 5.442 -0.74 3.982 -4.52 5.11 -7.752 2.96 -3.656 -2.432 -2.892 -6.26 0.482 -8.41v0.008Z" stroke-width="1"></path><path id="vector_138" fill="#000000" d="M219.536 307.954c-0.674 -0.624 -1.688 0.384 -1 1.012l5.32 4.928c0.676 0.626 1.688 -0.384 1.012 -1l-5.332 -4.94Z" stroke-width="1"></path><path id="vector_139" fill="#000000" d="M242.268 276.036c-0.926 3.354 -1.944 6.682 -3.054 9.982 -0.294 0.874 1.086 1.25 1.378 0.38 1.11 -3.298 2.128 -6.626 3.056 -9.982 0.044 -0.18 0.016 -0.372 -0.078 -0.532 -0.094 -0.16 -0.248 -0.278 -0.428 -0.328 -0.18 -0.05 -0.37 -0.026 -0.534 0.062 -0.164 0.09 -0.286 0.24 -0.34 0.418Z" stroke-width="1"></path><path id="vector_140" fill="#000000" d="M225.468 250.948c-0.718 -0.556 -1.738 0.448 -1 1.012 1.796 1.378 3.106 3.294 3.738 5.468 0.058 0.172 0.182 0.316 0.342 0.402 0.162 0.084 0.35 0.106 0.526 0.056 0.176 -0.048 0.326 -0.162 0.422 -0.318 0.094 -0.156 0.126 -0.342 0.088 -0.52 -0.692 -2.418 -2.134 -4.554 -4.116 -6.1Z" stroke-width="1"></path><path id="vector_141" fill="#000000" d="M232.06 244.966c-0.572 -0.72 -1.578 0.298 -1.012 1.012 1.5 1.894 2.694 4.012 3.534 6.278 0.318 0.856 1.7 0.486 1.38 -0.38 -0.928 -2.494 -2.244 -4.828 -3.902 -6.91Z" stroke-width="1"></path><path id="vector_142" fill="#000000" d="M266.532 315.286c-7.922 6.494 -17.148 11.208 -27.052 13.824 -0.178 0.054 -0.328 0.176 -0.418 0.34 -0.088 0.164 -0.112 0.354 -0.062 0.534 0.05 0.18 0.168 0.334 0.328 0.428 0.16 0.094 0.352 0.122 0.532 0.078 10.14 -2.688 19.582 -7.532 27.682 -14.2 0.712 -0.576 -0.304 -1.582 -1.01 -1.004Z" stroke-width="1"></path><path id="vector_143" fill="#000000" d="M243.8 333.736c-0.862 0.304 -0.492 1.686 0.38 1.38 9.342 -3.262 18.138 -7.914 26.092 -13.8 0.732 -0.542 0.02 -1.784 -0.72 -1.236 -7.85 5.82 -16.53 10.422 -25.752 13.656Z" stroke-width="1"></path><path id="vector_144" fill="#000000" d="M252.16 257.8c1.866 -3.912 3.574 -7.894 5.122 -11.946 0.33 -0.86 -1.052 -1.232 -1.378 -0.38 -1.506 3.932 -3.166 7.798 -4.978 11.6 -0.394 0.832 0.838 1.558 1.234 0.726Z" stroke-width="1"></path><path id="vector_145" fill="#000000" d="m280.724 269.848 2.432 -4.742c0.42 -0.816 -0.814 -1.54 -1.234 -0.72l-2.432 4.74c-0.42 0.818 0.814 1.542 1.234 0.722Z" stroke-width="1"></path></g></g></g></svg>